<svg width="64" height="64" viewBox="0 0 64 64" fill="none" xmlns="http://www.w3.org/2000/svg">
<circle cx="32" cy="32" r="31.25" stroke="currentColor" stroke-width="1.5"/>
<path d="M23.0347 43H21.5947V25.144C20.8481 25.8053 19.7067 26.136 18.1707 26.136H15.7067V24.792H18.1067C19.2374 24.792 20.1014 24.5573 20.6988 24.088C21.2961 23.5973 21.5947 22.904 21.5947 22.008H23.0347V43ZM34.2965 29.88C36.2805 29.88 37.8592 30.4027 39.0325 31.448C40.2272 32.4933 40.8245 33.8907 40.8245 35.64V37.464C40.8245 39.2347 40.2165 40.664 39.0005 41.752C37.8058 42.8187 36.2058 43.352 34.2005 43.352C32.1952 43.352 30.5952 42.904 29.4005 42.008C28.2058 41.112 27.6085 39.8853 27.6085 38.328V38.008H29.0805V38.328C29.0805 39.4587 29.5392 40.3547 30.4565 41.016C31.3738 41.656 32.6112 41.976 34.1685 41.976C35.7472 41.976 37.0058 41.5707 37.9445 40.76C38.8832 39.9493 39.3525 38.8613 39.3525 37.496V35.672C39.3525 34.3067 38.8832 33.2293 37.9445 32.44C37.0058 31.6507 35.7472 31.256 34.1685 31.256C32.7392 31.256 31.5658 31.5973 30.6485 32.28C29.7525 32.9627 29.2832 33.848 29.2405 34.936H27.8005L28.4725 22.008H40.0885V23.384H29.7845L29.3685 31.832C29.9018 31.2133 30.5845 30.7333 31.4165 30.392C32.2698 30.0507 33.2298 29.88 34.2965 29.88ZM46.0587 20.696V20.92L43.8187 28.312H42.5067L44.4587 20.696H46.0587Z" fill="currentColor"/>
</svg>
