<svg width="48" height="48" viewBox="0 0 48 48" fill="none" xmlns="http://www.w3.org/2000/svg">
<circle cx="24" cy="24" r="23.25" stroke="currentColor" stroke-width="1.5"/>
<path d="M28.6796 30.44V32H18.6476V30.464L22.9916 26.192C23.9516 25.248 24.6796 24.48 25.1756 23.888C25.6716 23.28 26.0156 22.728 26.2076 22.232C26.4156 21.736 26.5196 21.208 26.5196 20.648V20.408C26.5196 19.512 26.2396 18.816 25.6796 18.32C25.1356 17.824 24.3676 17.576 23.3756 17.576C22.3836 17.576 21.6076 17.84 21.0476 18.368C20.5036 18.88 20.2316 19.6 20.2316 20.528V21.032H18.5276V20.504C18.5276 19.096 18.9596 17.992 19.8236 17.192C20.6876 16.392 21.8716 15.992 23.3756 15.992C24.8956 15.992 26.0796 16.384 26.9276 17.168C27.7916 17.952 28.2236 19.032 28.2236 20.408V20.648C28.2236 21.656 27.9436 22.632 27.3836 23.576C26.8236 24.504 25.8076 25.696 24.3356 27.152L20.9996 30.44H28.6796Z" fill="currentColor"/>
</svg>
