<svg width="48" height="48" viewBox="0 0 48 48" fill="none" xmlns="http://www.w3.org/2000/svg">
<circle cx="24" cy="24" r="23.25" stroke="currentColor" stroke-width="1.5"/>
<path d="M24.0721 22.52C25.5921 22.52 26.7841 22.904 27.6481 23.672C28.5121 24.44 28.9441 25.504 28.9441 26.864V27.656C28.9441 29.08 28.4801 30.208 27.5521 31.04C26.6401 31.856 25.3921 32.264 23.8081 32.264C22.2241 32.264 20.9681 31.88 20.0401 31.112C19.1121 30.344 18.6481 29.296 18.6481 27.968V27.512H20.3521V27.968C20.3521 28.816 20.6641 29.48 21.2881 29.96C21.9121 30.44 22.7521 30.68 23.8081 30.68C24.8641 30.68 25.6961 30.416 26.3041 29.888C26.9121 29.36 27.2161 28.624 27.2161 27.68V26.912C27.2161 26 26.9041 25.288 26.2801 24.776C25.6721 24.264 24.8161 24.008 23.7121 24.008H21.7441V22.64L26.6401 17.816H18.9121V16.256H28.8721V17.816L24.0721 22.52Z" fill="currentColor"/>
</svg>
