<svg width="48" height="48" viewBox="0 0 48 48" fill="none" xmlns="http://www.w3.org/2000/svg">
<circle cx="24" cy="24" r="23.25" stroke="currentColor" stroke-width="1.5"/>
<path d="M24.2452 22.016C25.7812 22.016 27.0052 22.424 27.9172 23.24C28.8452 24.056 29.3092 25.144 29.3092 26.504V27.632C29.3092 29.04 28.8372 30.168 27.8932 31.016C26.9492 31.848 25.6932 32.264 24.1252 32.264C22.5412 32.264 21.2852 31.912 20.3572 31.208C19.4292 30.488 18.9652 29.504 18.9652 28.256V28.016H20.6692V28.256C20.6692 29.008 20.9732 29.6 21.5812 30.032C22.1892 30.464 23.0132 30.68 24.0532 30.68C25.1412 30.68 25.9972 30.416 26.6212 29.888C27.2452 29.344 27.5572 28.6 27.5572 27.656V26.528C27.5572 25.632 27.2372 24.928 26.5972 24.416C25.9732 23.888 25.1252 23.624 24.0532 23.624C23.1092 23.624 22.3332 23.84 21.7252 24.272C21.1172 24.688 20.7892 25.24 20.7412 25.928H19.0612L19.5652 16.256H28.6852V17.864H21.1252L20.8612 23.144C21.7092 22.392 22.8372 22.016 24.2452 22.016Z" fill="currentColor"/>
</svg>
