<svg width="64" height="64" viewBox="0 0 64 64" fill="none" xmlns="http://www.w3.org/2000/svg">
<mask id="path-1-inside-1_3889_14201" fill="white">
<path fill-rule="evenodd" clip-rule="evenodd" d="M8 16C3.58172 16 0 19.5817 0 24V48C0 52.4183 3.58172 56 8 56H9.96556V63.681L23.2695 56H32C36.4183 56 40 52.4183 40 48V24C40 19.5817 36.4183 16 32 16H8Z"/>
</mask>
<path d="M9.96556 56H11.4656V54.5H9.96556V56ZM9.96556 63.681H8.46556V66.2791L10.7156 64.9801L9.96556 63.681ZM23.2695 56V54.5H22.8676L22.5195 54.701L23.2695 56ZM1.5 24C1.5 20.4101 4.41015 17.5 8 17.5V14.5C2.7533 14.5 -1.5 18.7533 -1.5 24H1.5ZM1.5 48V24H-1.5V48H1.5ZM8 54.5C4.41015 54.5 1.5 51.5899 1.5 48H-1.5C-1.5 53.2467 2.75329 57.5 8 57.5V54.5ZM9.96556 54.5H8V57.5H9.96556V54.5ZM11.4656 63.681V56H8.46556V63.681H11.4656ZM22.5195 54.701L9.21556 62.382L10.7156 64.9801L24.0195 57.299L22.5195 54.701ZM32 54.5H23.2695V57.5H32V54.5ZM38.5 48C38.5 51.5899 35.5899 54.5 32 54.5V57.5C37.2467 57.5 41.5 53.2467 41.5 48H38.5ZM38.5 24V48H41.5V24H38.5ZM32 17.5C35.5899 17.5 38.5 20.4101 38.5 24H41.5C41.5 18.7533 37.2467 14.5 32 14.5V17.5ZM8 17.5H32V14.5H8V17.5Z" fill="currentColor" mask="url(#path-1-inside-1_3889_14201)"/>
<path fill-rule="evenodd" clip-rule="evenodd" d="M40 42.465L46.5195 38.701L46.8676 38.5H47.2695H56C59.5899 38.5 62.5 35.5899 62.5 32V8C62.5 4.41015 59.5899 1.5 56 1.5H32C28.4101 1.5 25.5 4.41015 25.5 8V16H24V8C24 3.58172 27.5817 0 32 0H56C60.4183 0 64 3.58172 64 8V32C64 36.4183 60.4183 40 56 40H47.2695L40 44.1971V42.465Z" fill="currentColor"/>
</svg>
