<svg width="64" height="64" viewBox="0 0 64 64" fill="none" xmlns="http://www.w3.org/2000/svg">
<path d="M32 30.75C32.6904 30.75 33.25 31.3096 33.25 32C33.25 32.6904 32.6904 33.25 32 33.25C31.3096 33.25 30.75 32.6904 30.75 32C30.75 31.6472 30.8951 31.3297 31.131 31.1015C31.3566 30.8832 31.662 30.75 32 30.75Z" stroke="currentColor" stroke-width="1.5"/>
<path d="M8 30.75C8.69036 30.75 9.25 31.3096 9.25 32C9.25 32.6904 8.69036 33.25 8 33.25C7.30964 33.25 6.75 32.6904 6.75 32C6.75 31.6472 6.89515 31.3297 7.13097 31.1015C7.35664 30.8832 7.662 30.75 8 30.75Z" stroke="currentColor" stroke-width="1.5"/>
<path d="M56 30.75C56.6904 30.75 57.25 31.3096 57.25 32C57.25 32.6904 56.6904 33.25 56 33.25C55.3096 33.25 54.75 32.6904 54.75 32C54.75 31.6472 54.8951 31.3297 55.131 31.1015C55.3566 30.8832 55.662 30.75 56 30.75Z" stroke="currentColor" stroke-width="1.5"/>
<path d="M20 24.75C20.6904 24.75 21.25 25.3096 21.25 26C21.25 26.6904 20.6904 27.25 20 27.25C19.3096 27.25 18.75 26.6904 18.75 26C18.75 25.6472 18.8951 25.3297 19.131 25.1015C19.3566 24.8832 19.662 24.75 20 24.75Z" stroke="currentColor" stroke-width="1.5"/>
<path d="M44 24.75C44.6904 24.75 45.25 25.3096 45.25 26C45.25 26.6904 44.6904 27.25 44 27.25C43.3096 27.25 42.75 26.6904 42.75 26C42.75 25.6472 42.8951 25.3297 43.131 25.1015C43.3566 24.8832 43.662 24.75 44 24.75Z" stroke="currentColor" stroke-width="1.5"/>
<path d="M32 18.75C32.6904 18.75 33.25 19.3096 33.25 20C33.25 20.6904 32.6904 21.25 32 21.25C31.3096 21.25 30.75 20.6904 30.75 20C30.75 19.6472 30.8951 19.3297 31.131 19.1015C31.3566 18.8832 31.662 18.75 32 18.75Z" stroke="currentColor" stroke-width="1.5"/>
<path d="M8 18.75C8.69036 18.75 9.25 19.3096 9.25 20C9.25 20.6904 8.69036 21.25 8 21.25C7.30964 21.25 6.75 20.6904 6.75 20C6.75 19.6472 6.89515 19.3297 7.13097 19.1015C7.35664 18.8832 7.662 18.75 8 18.75Z" stroke="currentColor" stroke-width="1.5"/>
<path d="M56 18.75C56.6904 18.75 57.25 19.3096 57.25 20C57.25 20.6904 56.6904 21.25 56 21.25C55.3096 21.25 54.75 20.6904 54.75 20C54.75 19.6472 54.8951 19.3297 55.131 19.1015C55.3566 18.8832 55.662 18.75 56 18.75Z" stroke="currentColor" stroke-width="1.5"/>
<path d="M20 12.75C20.6904 12.75 21.25 13.3096 21.25 14C21.25 14.6904 20.6904 15.25 20 15.25C19.3096 15.25 18.75 14.6904 18.75 14C18.75 13.6472 18.8951 13.3297 19.131 13.1015C19.3566 12.8832 19.662 12.75 20 12.75Z" stroke="currentColor" stroke-width="1.5"/>
<path d="M44 12.75C44.6904 12.75 45.25 13.3096 45.25 14C45.25 14.6904 44.6904 15.25 44 15.25C43.3096 15.25 42.75 14.6904 42.75 14C42.75 13.6472 42.8951 13.3297 43.131 13.1015C43.3566 12.8832 43.662 12.75 44 12.75Z" stroke="currentColor" stroke-width="1.5"/>
<path d="M32 6.75C32.6904 6.75 33.25 7.30964 33.25 8C33.25 8.69036 32.6904 9.25 32 9.25C31.3096 9.25 30.75 8.69036 30.75 8C30.75 7.64723 30.8951 7.32967 31.131 7.10151C31.3566 6.88316 31.662 6.75 32 6.75Z" stroke="currentColor" stroke-width="1.5"/>
<path d="M8 6.75C8.69036 6.75 9.25 7.30964 9.25 8C9.25 8.69036 8.69036 9.25 8 9.25C7.30964 9.25 6.75 8.69036 6.75 8C6.75 7.64723 6.89515 7.32967 7.13097 7.10151C7.35664 6.88316 7.662 6.75 8 6.75Z" stroke="currentColor" stroke-width="1.5"/>
<path d="M56 6.75C56.6904 6.75 57.25 7.30964 57.25 8C57.25 8.69036 56.6904 9.25 56 9.25C55.3096 9.25 54.75 8.69036 54.75 8C54.75 7.64723 54.8951 7.32967 55.131 7.10151C55.3566 6.88316 55.662 6.75 56 6.75Z" stroke="currentColor" stroke-width="1.5"/>
<path d="M32 42.75C32.6904 42.75 33.25 43.3096 33.25 44C33.25 44.6904 32.6904 45.25 32 45.25C31.3096 45.25 30.75 44.6904 30.75 44C30.75 43.6472 30.8951 43.3297 31.131 43.1015C31.3566 42.8832 31.662 42.75 32 42.75Z" stroke="currentColor" stroke-width="1.5"/>
<path d="M8 42.75C8.69036 42.75 9.25 43.3096 9.25 44C9.25 44.6904 8.69036 45.25 8 45.25C7.30964 45.25 6.75 44.6904 6.75 44C6.75 43.6472 6.89515 43.3297 7.13097 43.1015C7.35664 42.8832 7.662 42.75 8 42.75Z" stroke="currentColor" stroke-width="1.5"/>
<path d="M56 42.75C56.6904 42.75 57.25 43.3096 57.25 44C57.25 44.6904 56.6904 45.25 56 45.25C55.3096 45.25 54.75 44.6904 54.75 44C54.75 43.6472 54.8951 43.3297 55.131 43.1015C55.3566 42.8832 55.662 42.75 56 42.75Z" stroke="currentColor" stroke-width="1.5"/>
<path d="M20 36.75C20.6904 36.75 21.25 37.3096 21.25 38C21.25 38.6904 20.6904 39.25 20 39.25C19.3096 39.25 18.75 38.6904 18.75 38C18.75 37.6472 18.8951 37.3297 19.131 37.1015C19.3566 36.8832 19.662 36.75 20 36.75Z" stroke="currentColor" stroke-width="1.5"/>
<path d="M44 36.75C44.6904 36.75 45.25 37.3096 45.25 38C45.25 38.6904 44.6904 39.25 44 39.25C43.3096 39.25 42.75 38.6904 42.75 38C42.75 37.6472 42.8951 37.3297 43.131 37.1015C43.3566 36.8832 43.662 36.75 44 36.75Z" stroke="currentColor" stroke-width="1.5"/>
<path d="M32 54.75C32.6904 54.75 33.25 55.3096 33.25 56C33.25 56.6904 32.6904 57.25 32 57.25C31.3096 57.25 30.75 56.6904 30.75 56C30.75 55.6472 30.8951 55.3297 31.131 55.1015C31.3566 54.8832 31.662 54.75 32 54.75Z" stroke="currentColor" stroke-width="1.5"/>
<path d="M8 54.75C8.69036 54.75 9.25 55.3096 9.25 56C9.25 56.6904 8.69036 57.25 8 57.25C7.30964 57.25 6.75 56.6904 6.75 56C6.75 55.6472 6.89515 55.3297 7.13097 55.1015C7.35664 54.8832 7.662 54.75 8 54.75Z" stroke="currentColor" stroke-width="1.5"/>
<path d="M56 54.75C56.6904 54.75 57.25 55.3096 57.25 56C57.25 56.6904 56.6904 57.25 56 57.25C55.3096 57.25 54.75 56.6904 54.75 56C54.75 55.6472 54.8951 55.3297 55.131 55.1015C55.3566 54.8832 55.662 54.75 56 54.75Z" stroke="currentColor" stroke-width="1.5"/>
<path d="M20 48.75C20.6904 48.75 21.25 49.3096 21.25 50C21.25 50.6904 20.6904 51.25 20 51.25C19.3096 51.25 18.75 50.6904 18.75 50C18.75 49.6472 18.8951 49.3297 19.131 49.1015C19.3566 48.8832 19.662 48.75 20 48.75Z" stroke="currentColor" stroke-width="1.5"/>
<path d="M44 48.75C44.6904 48.75 45.25 49.3096 45.25 50C45.25 50.6904 44.6904 51.25 44 51.25C43.3096 51.25 42.75 50.6904 42.75 50C42.75 49.6472 42.8951 49.3297 43.131 49.1015C43.3566 48.8832 43.662 48.75 44 48.75Z" stroke="currentColor" stroke-width="1.5"/>
</svg>
