<svg width="28" height="28" viewBox="0 0 28 28" fill="none" xmlns="http://www.w3.org/2000/svg">
<path d="M27.1292 18.8696C27.692 17.353 28 15.7125 28 14C28 12.2875 27.692 10.6472 27.1292 9.13048L14 7.91309L0.870789 9.13048C0.308055 10.6472 0 12.2875 0 14C0 15.7125 0.308055 17.353 0.870789 18.8696L14 20.087L27.1292 18.8696Z" fill="#F0F0F0"/>
<path d="M14.0004 28.0001C20.0198 28.0001 25.1515 24.2008 27.1295 18.8696H0.871094C2.84925 24.2008 7.9808 28.0001 14.0004 28.0001Z" fill="#D80027"/>
<path d="M14.0004 0C7.9808 0 2.84925 3.79925 0.871094 9.13046H27.1296C25.1515 3.79925 20.0198 0 14.0004 0Z" fill="#D80027"/>
</svg>
