<svg width="28" height="28" viewBox="0 0 28 28" fill="none" xmlns="http://www.w3.org/2000/svg">
<path d="M28 14C28 21.7319 21.7319 28 14 28C6.26806 28 0 21.7319 0 14C0 14.0033 14 0.00158594 14 0C21.7319 0 28 6.26806 28 14Z" fill="#0052B4"/>
<path d="M13.9609 14H13.9984C13.9984 13.9873 13.9984 13.9752 13.9984 13.9625C13.9859 13.975 13.9735 13.9875 13.9609 14Z" fill="#F0F0F0"/>
<path d="M14 7.30433C14 4.84093 14 3.22673 14 0H13.9976C6.26675 0.00125781 0 6.26872 0 13.9999H7.30434V9.88678L11.4175 13.9999H13.9626C13.9751 13.9875 13.9876 13.975 14.0001 13.9625C14.0001 13.0193 14.0001 12.1777 14.0001 11.4175L9.88684 7.30433H14Z" fill="#F0F0F0"/>
<path d="M7.081 1.82605C4.89137 3.07287 3.07104 4.8932 1.82422 7.08283V14H5.47642V5.4783V5.47825H13.9982C13.9982 4.32636 13.9982 3.229 13.9982 1.82605H7.081Z" fill="#D80027"/>
<path d="M13.9964 12.2784L9.0224 7.30447H7.30078C7.30078 7.30441 7.30078 7.30447 7.30078 7.30447L13.9963 14H13.9964C13.9964 14 13.9964 12.813 13.9964 12.2784Z" fill="#D80027"/>
<path d="M8.44204 16.4348L9.2104 18.0414L10.9455 17.6404L10.1685 19.2429L11.5638 20.3493L9.82651 20.7409L9.83138 22.5218L8.44204 21.4076L7.05276 22.5218L7.05763 20.7409L5.32031 20.3493L6.71566 19.2429L5.93855 17.6404L7.67373 18.0414L8.44204 16.4348Z" fill="#F0F0F0"/>
<path d="M20.9593 19.4783L21.3435 20.2816L22.211 20.081L21.8225 20.8823L22.5202 21.4355L21.6515 21.6313L21.6539 22.5217L20.9593 21.9646L20.2646 22.5217L20.267 21.6313L19.3984 21.4355L20.0961 20.8823L19.7076 20.081L20.5751 20.2816L20.9593 19.4783Z" fill="#F0F0F0"/>
<path d="M17.3851 10.9565L17.7692 11.7599L18.6368 11.5593L18.2483 12.3605L18.9459 12.9138L18.0773 13.1096L18.0797 14L17.3851 13.4429L16.6905 14L16.6928 13.1096L15.8242 12.9138L16.5219 12.3605L16.1334 11.5593L17.0009 11.7599L17.3851 10.9565Z" fill="#F0F0F0"/>
<path d="M20.9593 6.08691L21.3435 6.89027L22.211 6.68973L21.8225 7.49096L22.5201 8.04418L21.6515 8.24002L21.6539 9.13044L20.9593 8.57334L20.2646 9.13044L20.267 8.24002L19.3984 8.04418L20.096 7.49096L19.7076 6.68973L20.5751 6.89027L20.9593 6.08691Z" fill="#F0F0F0"/>
<path d="M24.0804 9.73914L24.4645 10.5425L25.3321 10.3419L24.9436 11.1431L25.6413 11.6964L24.7726 11.8922L24.775 12.7826L24.0804 12.2256L23.3858 12.7826L23.3881 11.8922L22.5195 11.6964L23.2172 11.1431L22.8287 10.3419L23.6962 10.5425L24.0804 9.73914Z" fill="#F0F0F0"/>
<path d="M21.8504 14L22.1525 14.93H23.1305L22.3393 15.5048L22.6416 16.4348L21.8504 15.86L21.0593 16.4348L21.3614 15.5048L20.5703 14.93H21.5482L21.8504 14Z" fill="#F0F0F0"/>
</svg>
