<svg width="28" height="28" viewBox="0 0 28 28" fill="none" xmlns="http://www.w3.org/2000/svg">
<path d="M18.8705 0.870789C17.3539 0.308055 15.7135 0 14.001 0C12.2885 0 10.6481 0.308055 9.13146 0.870789L7.91406 14L9.13146 27.1292C10.6481 27.692 12.2885 28 14.001 28C15.7135 28 17.3539 27.692 18.8705 27.1292L20.0879 14L18.8705 0.870789Z" fill="#FFDA44"/>
<path d="M28.0016 14C28.0016 7.98054 24.2023 2.84889 18.8711 0.870842V27.1293C24.2023 25.1511 28.0016 20.0196 28.0016 14Z" fill="#D80027"/>
<path d="M0 14C0 20.0196 3.79925 25.1511 9.13046 27.1293V0.870842C3.79925 2.84889 0 7.98054 0 14Z" fill="black"/>
</svg>
