<svg width="64" height="64" viewBox="0 0 64 64" fill="none" xmlns="http://www.w3.org/2000/svg">
<path fill-rule="evenodd" clip-rule="evenodd" d="M54.3016 35C52.8349 46.0081 43.4091 54.5 31.9999 54.5C20.5906 54.5 11.1648 46.0081 9.69812 35H8.18555C9.66184 46.8389 19.761 56 31.9999 56C44.2387 56 54.3379 46.8389 55.8142 35H54.3016ZM55.8142 29C54.3379 17.1611 44.2387 8 31.9999 8C19.761 8 9.66184 17.1611 8.18555 29H9.69812C11.1648 17.9919 20.5906 9.5 31.9999 9.5C43.4091 9.5 52.8349 17.9919 54.3016 29H55.8142Z" fill="currentColor"/>
<path fill-rule="evenodd" clip-rule="evenodd" d="M35 62.3543C50.4366 60.8473 62.5 47.8324 62.5 32C62.5 23.7592 59.2338 16.2844 53.922 10.7944C49.0276 5.73578 42.4022 2.368 35 1.64561V0.138775C42.8259 0.866406 49.8341 4.41214 55 9.75136C60.5715 15.5098 64 23.3545 64 32C64 48.6615 51.2664 62.3488 35 63.8612V62.3543ZM29 62.3543C13.5634 60.8473 1.5 47.8324 1.5 32C1.5 16.1676 13.5634 3.15274 29 1.64567V0.138775C12.7336 1.65117 0 15.3385 0 32C0 48.6615 12.7336 62.3488 29 63.8612V62.3543ZM31.9964 1.93715e-07L32 0L32.0036 1.93715e-07H31.9964Z" fill="currentColor"/>
<path fill-rule="evenodd" clip-rule="evenodd" d="M46.5 32C46.5 25.0204 41.5686 19.1926 35 17.8107V16.2808C42.4026 17.685 48 24.1888 48 32C48 39.8111 42.4026 46.315 35 47.7192V46.1892C41.5686 44.8074 46.5 38.9796 46.5 32ZM29 46.1892C22.4314 44.8074 17.5 38.9796 17.5 32C17.5 25.0204 22.4314 19.1926 29 17.8107V16.2808C21.5974 17.685 16 24.1888 16 32C16 39.8111 21.5974 46.315 29 47.7192V46.1892Z" fill="currentColor"/>
</svg>
