<svg width="28" height="28" viewBox="0 0 28 28" fill="none" xmlns="http://www.w3.org/2000/svg">
<path d="M14 28C21.732 28 28 21.732 28 14C28 6.26801 21.732 0 14 0C6.26801 0 0 6.26801 0 14C0 21.732 6.26801 28 14 28Z" fill="#6DA544"/>
<path d="M13.9988 5.47827L25.564 14L13.9988 22.5217L2.43359 14L13.9988 5.47827Z" fill="#FFDA44"/>
<path d="M13.9984 18.8696C16.6878 18.8696 18.868 16.6894 18.868 14C18.868 11.3107 16.6878 9.13049 13.9984 9.13049C11.3091 9.13049 9.12891 11.3107 9.12891 14C9.12891 16.6894 11.3091 18.8696 13.9984 18.8696Z" fill="#F0F0F0"/>
<path d="M11.566 13.6957C10.7192 13.6957 9.90205 13.8245 9.13281 14.0635C9.16688 16.7235 11.3327 18.8696 14.0008 18.8696C15.6506 18.8696 17.1077 18.0484 17.9886 16.7932C16.4816 14.9067 14.1628 13.6957 11.566 13.6957Z" fill="#0052B4"/>
<path d="M18.7815 14.933C18.8401 14.6309 18.8717 14.3192 18.8717 14C18.8717 11.3106 16.6916 9.13049 14.0022 9.13049C11.9955 9.13049 10.2728 10.3446 9.52734 12.0781C10.1863 11.9415 10.8686 11.8696 11.5675 11.8696C14.3957 11.8696 16.9543 13.0452 18.7815 14.933Z" fill="#0052B4"/>
</svg>
