<svg width="64" height="64" viewBox="0 0 64 64" fill="none" xmlns="http://www.w3.org/2000/svg">
<rect x="0.75" y="4.75" width="62.5" height="54.5" rx="7.25" stroke="currentColor" stroke-width="1.5"/>
<path d="M0 14H64" stroke="currentColor" stroke-width="1.5"/>
<path d="M30.8422 45.656V47H17.8182V45.688L23.4182 40.216C24.8262 38.8507 25.9036 37.7093 26.6502 36.792C27.3969 35.8533 27.9196 35 28.2183 34.232C28.5382 33.4427 28.6982 32.6107 28.6982 31.736V31.416C28.6982 30.0293 28.2822 28.952 27.4502 28.184C26.6182 27.416 25.4556 27.032 23.9622 27.032C22.4689 27.032 21.2956 27.4267 20.4422 28.216C19.6102 29.0053 19.1942 30.104 19.1942 31.512V32.152H17.7542V31.512C17.7542 29.6773 18.2982 28.248 19.3862 27.224C20.4956 26.1787 22.0209 25.656 23.9622 25.656C25.9036 25.656 27.4182 26.168 28.5062 27.192C29.6156 28.216 30.1702 29.624 30.1702 31.416V31.736C30.1702 32.7387 29.9996 33.688 29.6582 34.584C29.3169 35.4587 28.7409 36.3973 27.9303 37.4C27.1409 38.4027 26.0209 39.6187 24.5702 41.048L19.8342 45.656H30.8422ZM45.926 27.352L38.822 34.52H39.494C41.4567 34.52 43.0033 35.032 44.134 36.056C45.286 37.0587 45.862 38.4347 45.862 40.184V41.432C45.862 43.2453 45.2647 44.6853 44.07 45.752C42.8967 46.8187 41.3073 47.352 39.302 47.352C37.318 47.352 35.7287 46.8613 34.534 45.88C33.3393 44.8773 32.742 43.544 32.742 41.88V41.304H34.182V41.88C34.182 43.1387 34.6513 44.1413 35.59 44.888C36.5287 45.6133 37.766 45.976 39.302 45.976C40.8593 45.976 42.0967 45.5813 43.014 44.792C43.9313 43.9813 44.39 42.872 44.39 41.464V40.184C44.39 38.8187 43.9313 37.752 43.014 36.984C42.0967 36.1947 40.838 35.8 39.238 35.8H36.87V34.616L44.038 27.352H33.03V26.008H45.926V27.352Z" fill="currentColor"/>
</svg>
