<svg width="64" height="64" viewBox="0 0 64 64" fill="none" xmlns="http://www.w3.org/2000/svg">
<rect x="10.75" y="4.75" width="42.5" height="54.5" rx="1.25" stroke="currentColor" stroke-width="1.5"/>
<path d="M32.75 14.2832V14.2782L39 12.7715L45.25 14.2782V14.2832V14.2929V14.3027V14.3125V14.3224V14.3324V14.3425V14.3526V14.3628V14.373V14.3834V14.3938V14.4043V14.4148V14.4254V14.4361V14.4469V14.4577V14.4686V14.4796V14.4906V14.5017V14.5129V14.5241V14.5354V14.5468V14.5582V14.5698V14.5813V14.593V14.6047V14.6165V14.6284V14.6403V14.6523V14.6643V14.6765V14.6886V14.7009V14.7132V14.7256V14.7381V14.7506V14.7632V14.7758V14.7885V14.8013V14.8142V14.8271V14.8401V14.8531V14.8662V14.8794V14.8926V14.9059V14.9193V14.9327V14.9462V14.9598V14.9734V14.9871V15.0008V15.0146V15.0285V15.0424V15.0564V15.0705V15.0846V15.0988V15.1131V15.1274V15.1417V15.1562V15.1707V15.1852V15.1998V15.2145V15.2292V15.244V15.2589V15.2738V15.2888V15.3038V15.3189V15.3341V15.3493V15.3646V15.3799V15.3953V15.4107V15.4263V15.4418V15.4574V15.4731V15.4889V15.5047V15.5205V15.5365V15.5524V15.5685V15.5846V15.6007V15.6169V15.6332V15.6495V15.6659V15.6823V15.6988V15.7153V15.7319V15.7486V15.7653V15.7821V15.7989V15.8157V15.8327V15.8497V15.8667V15.8838V15.9009V15.9181V15.9354V15.9527V15.9701V15.9875V16.005V16.0225V16.0401V16.0577V16.0754V16.0931V16.1109V16.1288V16.1467V16.1646V16.1826V16.2006V16.2188V16.2369V16.2551V16.2734V16.2917V16.31V16.3284V16.3469V16.3654V16.384V16.4026V16.4212V16.4399V16.4587V16.4775V16.4964V16.5153V16.5342V16.5532V16.5723V16.5914V16.6105V16.6297V16.649V16.6683V16.6876V16.707V16.7265V16.746V16.7655V16.7851V16.8047V16.8244V16.8441V16.8639V16.8837V16.9035V16.9234V16.9434V16.9634V16.9834V17.0035V17.0237V17.0438V17.0641V17.0843V17.1047V17.125V17.1454V17.1659V17.1864V17.2069V17.2275V17.2481V17.2688V17.2895V17.3102V17.331V17.3519V17.3727V17.3937V17.4146V17.4356V17.4567V17.4778V17.4989V17.5201V17.5413V17.5626V17.5839V17.6052V17.6266V17.648V17.6695V17.691V17.7125V17.7341V17.7558V17.7774V17.7991V17.8209V17.8426V17.8645V17.8863V17.9082V17.9302V17.9522V17.9742V17.9962V18.0183V18.0405V18.0626V18.0848V18.1071V18.1294V18.1517V18.174V18.1964V18.2189V18.2413V18.2638V18.2864V18.309V18.3316V18.3542V18.3769V18.3996V18.4224V18.4452V18.468V18.4909V18.5138V18.5367V18.5597V18.5827V18.6057V18.6288V18.6519V18.675V18.6982V18.7214V18.7446V18.7679V18.7912V18.8145V18.8379V18.8613V18.8847V18.9082V18.9317V18.9552V18.9788V19.0024V19.026V19.0497V19.0734V19.0971V19.1208V19.1446V19.1684V19.1923V19.2162V19.2401V19.264V19.288V19.3119V19.336V19.36V19.3841V19.4082V19.4324V19.4565V19.4807V19.505V19.5292V19.5535V19.5778V19.6021V19.6265V19.6509V19.6753V19.6998V19.7242V19.7488V19.7733V19.7978V19.8224V19.847V19.8717V19.8963V19.921V19.9457V19.9705V19.9952V20.02V20.0449V20.0697V20.0946V20.1195V20.1444V20.1693V20.1943V20.2193V20.2443V20.2693V20.2944V20.3195V20.3446V20.3697V20.3949V20.42V20.4452V20.4705V20.4957V20.521V20.5463V20.5716V20.5969V20.6223V20.6476V20.673V20.6985V20.7239V20.7494V20.7748V20.8004V20.8259V20.8514V20.877V20.9026V20.9282V20.9538V20.9794V21.0051V21.0308V21.0565V21.0822V21.108V21.1337V21.1595V21.1853V21.2111V21.2369V21.2628V21.2887V21.3146V21.3405V21.3664V21.3923V21.4183V21.4442V21.4702V21.4962V21.5223V21.5483V21.5744V21.6004V21.6265V21.6526V21.6787V21.7049V21.731V21.7572V21.7834V21.8096V21.8358V21.862V21.8882V21.9145V21.9408V21.967V21.9933V22.0196V22.046V22.0723V22.0986V22.125C45.25 24.0021 43.7615 25.7742 42.0302 27.1654C41.1913 27.8395 40.3483 28.3818 39.713 28.7562C39.4237 28.9266 39.1792 29.0613 39 29.1568C38.8208 29.0613 38.5763 28.9266 38.287 28.7562C37.6517 28.3818 36.8087 27.8395 35.9698 27.1654C34.2385 25.7742 32.75 24.0021 32.75 22.125V22.0986V22.0723V22.046V22.0196V21.9933V21.967V21.9408V21.9145V21.8882V21.862V21.8358V21.8096V21.7834V21.7572V21.731V21.7049V21.6787V21.6526V21.6265V21.6004V21.5744V21.5483V21.5223V21.4962V21.4702V21.4442V21.4183V21.3923V21.3664V21.3405V21.3146V21.2887V21.2628V21.2369V21.2111V21.1853V21.1595V21.1337V21.108V21.0822V21.0565V21.0308V21.0051V20.9794V20.9538V20.9282V20.9026V20.877V20.8514V20.8259V20.8004V20.7748V20.7494V20.7239V20.6985V20.673V20.6476V20.6223V20.5969V20.5716V20.5463V20.521V20.4957V20.4705V20.4452V20.42V20.3949V20.3697V20.3446V20.3195V20.2944V20.2693V20.2443V20.2193V20.1943V20.1693V20.1444V20.1195V20.0946V20.0697V20.0449V20.02V19.9952V19.9705V19.9457V19.921V19.8963V19.8717V19.847V19.8224V19.7978V19.7733V19.7488V19.7242V19.6998V19.6753V19.6509V19.6265V19.6021V19.5778V19.5535V19.5292V19.505V19.4807V19.4565V19.4324V19.4082V19.3841V19.36V19.336V19.3119V19.288V19.264V19.2401V19.2162V19.1923V19.1684V19.1446V19.1208V19.0971V19.0734V19.0497V19.026V19.0024V18.9788V18.9552V18.9317V18.9082V18.8847V18.8613V18.8379V18.8145V18.7912V18.7679V18.7446V18.7214V18.6982V18.675V18.6519V18.6288V18.6057V18.5827V18.5597V18.5367V18.5138V18.4909V18.468V18.4452V18.4224V18.3996V18.3769V18.3542V18.3316V18.309V18.2864V18.2638V18.2413V18.2189V18.1964V18.174V18.1517V18.1294V18.1071V18.0848V18.0626V18.0405V18.0183V17.9962V17.9742V17.9522V17.9302V17.9082V17.8863V17.8645V17.8426V17.8209V17.7991V17.7774V17.7558V17.7341V17.7125V17.691V17.6695V17.648V17.6266V17.6052V17.5839V17.5626V17.5413V17.5201V17.4989V17.4778V17.4567V17.4356V17.4146V17.3937V17.3727V17.3519V17.331V17.3102V17.2895V17.2688V17.2481V17.2275V17.2069V17.1864V17.1659V17.1454V17.125V17.1047V17.0843V17.0641V17.0438V17.0237V17.0035V16.9834V16.9634V16.9434V16.9234V16.9035V16.8837V16.8639V16.8441V16.8244V16.8047V16.7851V16.7655V16.746V16.7265V16.707V16.6876V16.6683V16.649V16.6297V16.6105V16.5914V16.5723V16.5532V16.5342V16.5153V16.4964V16.4775V16.4587V16.4399V16.4212V16.4026V16.384V16.3654V16.3469V16.3284V16.31V16.2917V16.2734V16.2551V16.2369V16.2188V16.2006V16.1826V16.1646V16.1467V16.1288V16.1109V16.0931V16.0754V16.0577V16.0401V16.0225V16.005V15.9875V15.9701V15.9527V15.9354V15.9181V15.9009V15.8838V15.8667V15.8497V15.8327V15.8157V15.7989V15.7821V15.7653V15.7486V15.7319V15.7153V15.6988V15.6823V15.6659V15.6495V15.6332V15.6169V15.6007V15.5846V15.5685V15.5524V15.5365V15.5205V15.5047V15.4889V15.4731V15.4574V15.4418V15.4263V15.4107V15.3953V15.3799V15.3646V15.3493V15.3341V15.3189V15.3038V15.2888V15.2738V15.2589V15.244V15.2292V15.2145V15.1998V15.1852V15.1707V15.1562V15.1417V15.1274V15.1131V15.0988V15.0846V15.0705V15.0564V15.0424V15.0285V15.0146V15.0008V14.9871V14.9734V14.9598V14.9462V14.9327V14.9193V14.9059V14.8926V14.8794V14.8662V14.8531V14.8401V14.8271V14.8142V14.8013V14.7885V14.7758V14.7632V14.7506V14.7381V14.7256V14.7132V14.7009V14.6886V14.6765V14.6643V14.6523V14.6403V14.6284V14.6165V14.6047V14.593V14.5813V14.5698V14.5582V14.5468V14.5354V14.5241V14.5129V14.5017V14.4906V14.4796V14.4686V14.4577V14.4469V14.4361V14.4254V14.4148V14.4043V14.3938V14.3834V14.373V14.3628V14.3526V14.3425V14.3324V14.3224V14.3125V14.3027V14.2929V14.2832Z" stroke="currentColor" stroke-width="1.5"/>
</svg>
