<svg width="64" height="64" viewBox="0 0 64 64" fill="none" xmlns="http://www.w3.org/2000/svg">
<path d="M64 16L-9.53674e-07 16" stroke="currentColor" stroke-width="1.5" stroke-linejoin="round"/>
<path d="M16 0L16 64" stroke="currentColor" stroke-width="1.5" stroke-linejoin="round"/>
<path d="M64 48H-9.53674e-07" stroke="currentColor" stroke-width="1.5" stroke-linejoin="round"/>
<path d="M48 0L48 64" stroke="currentColor" stroke-width="1.5" stroke-linejoin="round"/>
<path d="M21 19.75C21.6904 19.75 22.25 20.3096 22.25 21C22.25 21.6904 21.6904 22.25 21 22.25C20.3096 22.25 19.75 21.6904 19.75 21C19.75 20.6472 19.8951 20.3297 20.131 20.1015C20.3566 19.8832 20.662 19.75 21 19.75Z" stroke="currentColor" stroke-width="1.5"/>
<path d="M53 19.75C53.6904 19.75 54.25 20.3096 54.25 21C54.25 21.6904 53.6904 22.25 53 22.25C52.3096 22.25 51.75 21.6904 51.75 21C51.75 20.6472 51.8951 20.3297 52.131 20.1015C52.3566 19.8832 52.662 19.75 53 19.75Z" stroke="currentColor" stroke-width="1.5"/>
<path d="M53 51.75C53.6904 51.75 54.25 52.3096 54.25 53C54.25 53.6904 53.6904 54.25 53 54.25C52.3096 54.25 51.75 53.6904 51.75 53C51.75 52.6472 51.8951 52.3297 52.131 52.1015C52.3566 51.8832 52.662 51.75 53 51.75Z" stroke="currentColor" stroke-width="1.5"/>
<path d="M21 51.75C21.6904 51.75 22.25 52.3096 22.25 53C22.25 53.6904 21.6904 54.25 21 54.25C20.3096 54.25 19.75 53.6904 19.75 53C19.75 52.6472 19.8951 52.3297 20.131 52.1015C20.3566 51.8832 20.662 51.75 21 51.75Z" stroke="currentColor" stroke-width="1.5"/>
<path d="M21 9.75C21.6904 9.75 22.25 10.3096 22.25 11C22.25 11.6904 21.6904 12.25 21 12.25C20.3096 12.25 19.75 11.6904 19.75 11C19.75 10.6472 19.8951 10.3297 20.131 10.1015C20.3566 9.88316 20.662 9.75 21 9.75Z" stroke="currentColor" stroke-width="1.5"/>
<path d="M53 9.75C53.6904 9.75 54.25 10.3096 54.25 11C54.25 11.6904 53.6904 12.25 53 12.25C52.3096 12.25 51.75 11.6904 51.75 11C51.75 10.6472 51.8951 10.3297 52.131 10.1015C52.3566 9.88316 52.662 9.75 53 9.75Z" stroke="currentColor" stroke-width="1.5"/>
<path d="M53 41.75C53.6904 41.75 54.25 42.3096 54.25 43C54.25 43.6904 53.6904 44.25 53 44.25C52.3096 44.25 51.75 43.6904 51.75 43C51.75 42.6472 51.8951 42.3297 52.131 42.1015C52.3566 41.8832 52.662 41.75 53 41.75Z" stroke="currentColor" stroke-width="1.5"/>
<path d="M21 41.75C21.6904 41.75 22.25 42.3096 22.25 43C22.25 43.6904 21.6904 44.25 21 44.25C20.3096 44.25 19.75 43.6904 19.75 43C19.75 42.6472 19.8951 42.3297 20.131 42.1015C20.3566 41.8832 20.662 41.75 21 41.75Z" stroke="currentColor" stroke-width="1.5"/>
<path d="M11 19.75C11.6904 19.75 12.25 20.3096 12.25 21C12.25 21.6904 11.6904 22.25 11 22.25C10.3096 22.25 9.75 21.6904 9.75 21C9.75 20.6472 9.89515 20.3297 10.131 20.1015C10.3566 19.8832 10.662 19.75 11 19.75Z" stroke="currentColor" stroke-width="1.5"/>
<path d="M43 19.75C43.6904 19.75 44.25 20.3096 44.25 21C44.25 21.6904 43.6904 22.25 43 22.25C42.3096 22.25 41.75 21.6904 41.75 21C41.75 20.6472 41.8951 20.3297 42.131 20.1015C42.3566 19.8832 42.662 19.75 43 19.75Z" stroke="currentColor" stroke-width="1.5"/>
<path d="M43 51.75C43.6904 51.75 44.25 52.3096 44.25 53C44.25 53.6904 43.6904 54.25 43 54.25C42.3096 54.25 41.75 53.6904 41.75 53C41.75 52.6472 41.8951 52.3297 42.131 52.1015C42.3566 51.8832 42.662 51.75 43 51.75Z" stroke="currentColor" stroke-width="1.5"/>
<path d="M11 51.75C11.6904 51.75 12.25 52.3096 12.25 53C12.25 53.6904 11.6904 54.25 11 54.25C10.3096 54.25 9.75 53.6904 9.75 53C9.75 52.6472 9.89515 52.3297 10.131 52.1015C10.3566 51.8832 10.662 51.75 11 51.75Z" stroke="currentColor" stroke-width="1.5"/>
<path d="M11 9.75C11.6904 9.75 12.25 10.3096 12.25 11C12.25 11.6904 11.6904 12.25 11 12.25C10.3096 12.25 9.75 11.6904 9.75 11C9.75 10.6472 9.89515 10.3297 10.131 10.1015C10.3566 9.88316 10.662 9.75 11 9.75Z" stroke="currentColor" stroke-width="1.5"/>
<path d="M43 9.75C43.6904 9.75 44.25 10.3096 44.25 11C44.25 11.6904 43.6904 12.25 43 12.25C42.3096 12.25 41.75 11.6904 41.75 11C41.75 10.6472 41.8951 10.3297 42.131 10.1015C42.3566 9.88316 42.662 9.75 43 9.75Z" stroke="currentColor" stroke-width="1.5"/>
<path d="M43 41.75C43.6904 41.75 44.25 42.3096 44.25 43C44.25 43.6904 43.6904 44.25 43 44.25C42.3096 44.25 41.75 43.6904 41.75 43C41.75 42.6472 41.8951 42.3297 42.131 42.1015C42.3566 41.8832 42.662 41.75 43 41.75Z" stroke="currentColor" stroke-width="1.5"/>
<path d="M11 41.75C11.6904 41.75 12.25 42.3096 12.25 43C12.25 43.6904 11.6904 44.25 11 44.25C10.3096 44.25 9.75 43.6904 9.75 43C9.75 42.6472 9.89515 42.3297 10.131 42.1015C10.3566 41.8832 10.662 41.75 11 41.75Z" stroke="currentColor" stroke-width="1.5"/>
</svg>
