<svg width="64" height="64" viewBox="0 0 64 64" fill="none" xmlns="http://www.w3.org/2000/svg">
<path d="M53.1265 20.1872C54.4862 21.5468 55.25 23.3909 55.25 25.3137L55.25 54C55.25 58.0041 52.0041 61.25 48 61.25L16 61.25C11.9959 61.25 8.75 58.0041 8.75 54L8.75 25.3137C8.75 23.3909 9.51384 21.5468 10.8735 20.1872L26.8735 4.18719C29.7048 1.35588 34.2952 1.35588 37.1265 4.18718L53.1265 20.1872Z" stroke="currentColor" stroke-width="1.5"/>
<path d="M25.0108 37.928C23.6881 37.928 22.6321 37.544 21.8428 36.776C21.0748 36.008 20.6908 34.9627 20.6908 33.64V32.072C20.6908 30.7707 21.0748 29.736 21.8428 28.968C22.6321 28.2 23.6881 27.816 25.0108 27.816C26.3548 27.816 27.4108 28.2 28.1788 28.968C28.9681 29.7147 29.3628 30.7493 29.3628 32.072V33.64C29.3628 34.9413 28.9681 35.9867 28.1788 36.776C27.3894 37.544 26.3334 37.928 25.0108 37.928ZM25.0108 36.744C25.9921 36.744 26.7494 36.4667 27.2828 35.912C27.8161 35.3573 28.0828 34.5787 28.0828 33.576V32.104C28.0828 31.1227 27.8161 30.3653 27.2828 29.832C26.7494 29.2773 25.9921 29 25.0108 29C24.0294 29 23.2721 29.2667 22.7388 29.8C22.2268 30.3333 21.9708 31.1013 21.9708 32.104V33.576C21.9708 34.5787 22.2268 35.3573 22.7388 35.912C23.2721 36.4667 24.0294 36.744 25.0108 36.744ZM38.9948 49.192C37.6721 49.192 36.6161 48.808 35.8268 48.04C35.0588 47.272 34.6748 46.2267 34.6748 44.904V43.336C34.6748 42.0347 35.0588 41 35.8268 40.232C36.6161 39.464 37.6721 39.08 38.9948 39.08C40.3388 39.08 41.3948 39.464 42.1628 40.232C42.9521 40.9787 43.3468 42.0133 43.3468 43.336V44.904C43.3468 46.2053 42.9521 47.2507 42.1628 48.04C41.3734 48.808 40.3174 49.192 38.9948 49.192ZM38.9948 48.008C39.9761 48.008 40.7334 47.7307 41.2668 47.176C41.8001 46.6213 42.0668 45.8427 42.0668 44.84V43.368C42.0668 42.3867 41.8001 41.6293 41.2668 41.096C40.7334 40.5413 39.9761 40.264 38.9948 40.264C38.0134 40.264 37.2561 40.5307 36.7228 41.064C36.2108 41.5973 35.9548 42.3653 35.9548 43.368V44.84C35.9548 45.8427 36.2108 46.6213 36.7228 47.176C37.2561 47.7307 38.0134 48.008 38.9948 48.008ZM39.0588 28.008H40.4028V28.264L24.9788 49H23.6028V48.744L39.0588 28.008Z" fill="currentColor"/>
<circle cx="32" cy="11" r="3.25" stroke="currentColor" stroke-width="1.5"/>
</svg>
