<svg width="28" height="28" viewBox="0 0 28 28" fill="none" xmlns="http://www.w3.org/2000/svg">
<path d="M28 14C28 12.2875 27.6919 10.647 27.1292 9.13045L14 8.52173L0.870789 9.1304C0.308055 10.647 0 12.2875 0 14C0 15.7125 0.308055 17.3529 0.870789 18.8695L14 19.4783L27.1292 18.8696C27.6919 17.3529 28 15.7125 28 14Z" fill="#F0F0F0"/>
<path d="M14.0003 28C20.0198 28 25.1514 24.2007 27.1295 18.8695H0.871094C2.8492 24.2007 7.9808 28 14.0003 28Z" fill="#0052B4"/>
<path d="M0.871094 9.13046H27.1296C25.1514 3.79925 20.0198 0 14.0003 0C7.9808 0 2.8492 3.79925 0.871094 9.13046Z" fill="#D80027"/>
<path d="M17.6496 9.73919H15.2148L15.6207 6.69567L17.2438 5.47827L18.867 6.69567V9.13047L17.6496 9.73919Z" fill="#338AF3"/>
<path d="M10.3462 9.73919H12.781L12.3752 6.69567L10.752 5.47827L9.12891 6.69567V9.13047L10.3462 9.73919Z" fill="#338AF3"/>
<path d="M15.6215 9.73919H12.375V6.69567L13.9982 5.47827L15.6215 6.69567V9.73919Z" fill="#0052B4"/>
<path d="M9.12891 9.13049V15.8261C9.12891 17.4204 9.89902 18.8382 11.0868 19.7271L11.939 19.5138L13.0144 20.5957C13.3324 20.6612 13.6615 20.6957 13.9985 20.6957C14.3337 20.6957 14.6611 20.6616 14.9775 20.5968L16.205 19.5747L16.9101 19.7251C18.0974 18.8363 18.868 17.42 18.868 15.8261V9.13049H9.12891Z" fill="#F0F0F0"/>
<path d="M9.12891 9.13049H11.0767V11.0783H9.12891V9.13049Z" fill="#D80027"/>
<path d="M13.0234 9.13049H14.9712V11.0783H13.0234V9.13049Z" fill="#D80027"/>
<path d="M16.9219 9.13049H18.8697V11.0783H16.9219V9.13049Z" fill="#D80027"/>
<path d="M11.0781 11.0782H13.0259V13.0261H11.0781V11.0782Z" fill="#D80027"/>
<path d="M14.9727 11.0782H16.9205V13.0261H14.9727V11.0782Z" fill="#D80027"/>
<path d="M9.12891 13.0255H11.0767V14.9733H9.12891V13.0255Z" fill="#D80027"/>
<path d="M11.0781 14.9734H13.0259V16.9212H11.0781V14.9734Z" fill="#D80027"/>
<path d="M13.0234 13.0255H14.9712V14.9733H13.0234V13.0255Z" fill="#D80027"/>
<path d="M16.9219 13.0255H18.8697V14.9733H16.9219V13.0255Z" fill="#D80027"/>
<path d="M14.9727 14.9734H16.9205V16.9212H14.9727V14.9734Z" fill="#D80027"/>
<path d="M13.0234 16.9211H14.9712V18.8689H13.0234V16.9211Z" fill="#D80027"/>
<path d="M11.076 16.9214H9.25391C9.42103 17.6454 9.74959 18.308 10.2001 18.8692H11.076V16.9214Z" fill="#D80027"/>
<path d="M16.9219 18.8692H17.7977C18.2484 18.308 18.5768 17.6454 18.744 16.9214H16.9219V18.8692Z" fill="#D80027"/>
<path d="M11.0781 18.8691V19.719C11.6446 20.1453 12.3067 20.451 13.0259 20.5976V18.8691H11.0781Z" fill="#D80027"/>
<path d="M14.9727 18.8691V20.5976C15.692 20.4511 16.354 20.1453 16.9205 19.719V18.8691H14.9727Z" fill="#D80027"/>
</svg>
