<svg width="28" height="28" viewBox="0 0 28 28" fill="none" xmlns="http://www.w3.org/2000/svg">
<g clip-path="url(#clip0_4041_20883)">
<path d="M14 28C21.732 28 28 21.732 28 14C28 6.26801 21.732 0 14 0C6.26801 0 0 6.26801 0 14C0 21.732 6.26801 28 14 28Z" fill="#F0F0F0"/>
<path d="M12.7837 14C12.7837 14 4.10977 23.9014 4.10156 23.8995C6.63501 26.433 10.1351 28 14.0011 28C21.733 28 28.0011 21.7319 28.0011 14H12.7837Z" fill="#D80027"/>
<path d="M4.10049 4.10059C-1.36683 9.56791 -1.36683 18.4323 4.10049 23.8996C6.3598 21.6403 8.53269 19.4674 14 14.0001L4.10049 4.10059Z" fill="#0052B4"/>
</g>
<defs>
<clipPath id="clip0_4041_20883">
<rect width="28" height="28" fill="white"/>
</clipPath>
</defs>
</svg>
