<svg width="64" height="64" viewBox="0 0 64 64" fill="none" xmlns="http://www.w3.org/2000/svg">
<mask id="path-1-inside-1_3925_13619" fill="white">
<path d="M34.1145 43.75C33.1747 45.4167 30.8253 45.4167 29.8855 43.75L7.33076 3.75001C6.39098 2.08334 7.5657 3.24309e-06 9.44526 3.11336e-06L54.5547 0C56.4343 -1.29724e-07 57.609 2.08333 56.6692 3.75L34.1145 43.75Z"/>
</mask>
<path d="M54.5547 0V1.5V0ZM56.6692 3.75L57.9758 4.48675L56.6692 3.75ZM7.33076 3.75001L8.63736 3.01326L7.33076 3.75001ZM9.44526 3.11336e-06L9.44526 -1.5L9.44526 3.11336e-06ZM29.8855 43.75L28.5789 44.4868L29.8855 43.75ZM34.1145 43.75L32.8079 43.0132L34.1145 43.75ZM31.1921 43.0133L8.63736 3.01326L6.02416 4.48676L28.5789 44.4868L31.1921 43.0133ZM9.44526 1.5L54.5547 1.5V-1.5L9.44526 -1.5L9.44526 1.5ZM55.3626 3.01325L32.8079 43.0132L35.4211 44.4867L57.9758 4.48675L55.3626 3.01325ZM54.5547 1.5C55.2261 1.5 55.7684 2.29359 55.3626 3.01325L57.9758 4.48675C59.4496 1.87308 57.6424 -1.5 54.5547 -1.5V1.5ZM8.63736 3.01326C8.23156 2.29358 8.77385 1.5 9.44526 1.5L9.44526 -1.5C6.35755 -1.5 4.5504 1.8731 6.02416 4.48676L8.63736 3.01326ZM28.5789 44.4868C30.0925 47.1711 33.9075 47.1711 35.4211 44.4867L32.8079 43.0132C32.442 43.6623 31.558 43.6623 31.1921 43.0133L28.5789 44.4868Z" fill="currentColor" mask="url(#path-1-inside-1_3925_13619)"/>
<path fill-rule="evenodd" clip-rule="evenodd" d="M1.5 50V52C1.5 57.799 6.20101 62.5 12 62.5H52C57.799 62.5 62.5 57.799 62.5 52V50H64V52C64 58.6274 58.6274 64 52 64H12C5.37258 64 0 58.6274 0 52V50H1.5Z" fill="currentColor"/>
</svg>
