<svg width="28" height="28" viewBox="0 0 28 28" fill="none" xmlns="http://www.w3.org/2000/svg">
<path d="M14 28C21.732 28 28 21.732 28 14C28 6.26801 21.732 0 14 0C6.26801 0 0 6.26801 0 14C0 21.732 6.26801 28 14 28Z" fill="#F0F0F0"/>
<path d="M10.9571 12.1739H27.882C26.9872 5.3048 21.1135 0 14.0005 0C12.9551 0 11.937 0.115555 10.957 0.332773V12.1739H10.9571Z" fill="#D80027"/>
<path d="M7.30301 12.1739V1.70226C3.45886 3.79974 0.706882 7.64706 0.117188 12.1739H7.30301V12.1739Z" fill="#D80027"/>
<path d="M7.30295 15.8261H0.117188C0.706882 20.3529 3.45886 24.2003 7.30301 26.2977L7.30295 15.8261Z" fill="#D80027"/>
<path d="M10.957 15.8261V27.6672C11.937 27.8844 12.9551 28 14.0005 28C21.1135 28 26.9872 22.6952 27.882 15.8261H10.957V15.8261Z" fill="#D80027"/>
</svg>
