<svg width="64" height="64" viewBox="0 0 64 64" fill="none" xmlns="http://www.w3.org/2000/svg">
<path d="M27.0607 32L32 27.0607L36.9393 32L32 36.9393L27.0607 32Z" stroke="currentColor" stroke-width="1.5"/>
<path d="M7.06066 32L12 27.0607L16.9393 32L12 36.9393L7.06066 32Z" stroke="currentColor" stroke-width="1.5"/>
<path d="M47.0607 32L52 27.0607L56.9393 32L52 36.9393L47.0607 32Z" stroke="currentColor" stroke-width="1.5"/>
<path d="M27.0607 12L32 7.06066L36.9393 12L32 16.9393L27.0607 12Z" stroke="currentColor" stroke-width="1.5"/>
<path d="M27.0607 52L32 47.0607L36.9393 52L32 56.9393L27.0607 52Z" stroke="currentColor" stroke-width="1.5"/>
<path d="M7.06066 12L12 7.06066L16.9393 12L12 16.9393L7.06066 12Z" stroke="currentColor" stroke-width="1.5"/>
<path d="M7.06066 52L12 47.0607L16.9393 52L12 56.9393L7.06066 52Z" stroke="currentColor" stroke-width="1.5"/>
<path d="M47.0607 12L52 7.06066L56.9393 12L52 16.9393L47.0607 12Z" stroke="currentColor" stroke-width="1.5"/>
<path d="M47.0607 52L52 47.0607L56.9393 52L52 56.9393L47.0607 52Z" stroke="currentColor" stroke-width="1.5"/>
</svg>
