<svg width="64" height="64" viewBox="0 0 64 64" fill="none" xmlns="http://www.w3.org/2000/svg">
<rect x="0.75" y="0.75" width="62.5" height="62.5" rx="11.25" stroke="currentColor" stroke-width="1.5"/>
<path d="M36.6233 45.2888C37.4233 45.6622 38.0366 46.1777 38.4633 46.8355C38.9077 47.4755 39.1299 48.2311 39.1299 49.1022V49.5288C39.1299 50.9511 38.6321 52.0888 37.6366 52.9422C36.6588 53.7955 35.361 54.2222 33.7433 54.2222H26.9699V36.7288H33.3699C35.0055 36.7288 36.3121 37.1377 37.2899 37.9555C38.2677 38.7555 38.7566 39.8399 38.7566 41.2088V41.6088C38.7566 42.4088 38.5699 43.1288 38.1966 43.7688C37.8233 44.4088 37.2988 44.9155 36.6233 45.2888ZM29.4766 38.9955V44.2488H33.3966C34.2855 44.2488 34.9877 44.0355 35.5033 43.6088C36.0188 43.1644 36.2766 42.5599 36.2766 41.7955V41.3955C36.2766 40.6311 36.0277 40.0444 35.5299 39.6355C35.0321 39.2088 34.3121 38.9955 33.3699 38.9955H29.4766ZM36.6499 49.0222C36.6499 48.2399 36.3833 47.6266 35.8499 47.1822C35.3166 46.7199 34.5966 46.4888 33.6899 46.4888H29.4766V51.9555H33.6633C34.6055 51.9555 35.3344 51.7333 35.8499 51.2888C36.3833 50.8444 36.6499 50.2311 36.6499 49.4488V49.0222ZM54.1939 53.8222V54.2222H51.7139L50.4339 50.1422H43.8205L42.5405 54.2222H40.0605V53.8222L45.6872 36.7288H48.5672L54.1939 53.8222ZM49.7139 47.8755L47.1272 39.6088L44.5405 47.8755H49.7139Z" fill="currentColor"/>
<path d="M14.3999 16.16V16.3334H13.2212L11.0719 12.9476L10.0319 14.2418V16.3334H8.94566V8.75293H10.0319V12.5663L13.175 8.75293H14.3305V8.92626L11.8114 12.0463L14.3999 16.16ZM20.3737 15.3627V16.3334H15.4279V15.3743L17.5772 13.2596C18.0009 12.8436 18.3206 12.5085 18.5363 12.2543C18.752 11.9923 18.9022 11.7612 18.987 11.5609C19.0717 11.3606 19.1141 11.1449 19.1141 10.9138V10.7983C19.1141 10.4285 18.9947 10.1396 18.7559 9.9316C18.5248 9.7236 18.1974 9.6196 17.7737 9.6196C17.3499 9.6196 17.0187 9.7313 16.7799 9.95471C16.5411 10.1704 16.4217 10.4747 16.4217 10.8676V11.1103H15.3585V10.856C15.3585 10.155 15.5704 9.60804 15.9941 9.21515C16.4255 8.81456 17.0187 8.61426 17.7737 8.61426C18.5209 8.61426 19.1064 8.81071 19.5301 9.2036C19.9615 9.58878 20.1772 10.1203 20.1772 10.7983V10.9138C20.1772 11.3683 20.0501 11.8113 19.7959 12.2427C19.5417 12.6664 19.0871 13.2018 18.4323 13.8489L16.8954 15.3627H20.3737Z" fill="currentColor"/>
</svg>
