<svg width="64" height="64" viewBox="0 0 64 64" fill="none" xmlns="http://www.w3.org/2000/svg">
<rect x="0.75" y="0.75" width="62.5" height="62.5" rx="11.25" stroke="currentColor" stroke-width="1.5"/>
<path d="M30.388 36.7288C31.7036 36.7288 32.8592 36.9866 33.8547 37.5022C34.8503 38.0177 35.6147 38.7466 36.148 39.6888C36.6992 40.6311 36.9747 41.7244 36.9747 42.9688V47.9822C36.9747 49.2266 36.6992 50.3199 36.148 51.2622C35.6147 52.2044 34.8503 52.9333 33.8547 53.4488C32.8592 53.9644 31.7036 54.2222 30.388 54.2222H24.548V36.7288H30.388ZM30.468 51.9555C31.748 51.9555 32.7347 51.6088 33.428 50.9155C34.1214 50.2044 34.468 49.2088 34.468 47.9288V43.0488C34.468 41.7688 34.1214 40.7733 33.428 40.0622C32.7347 39.3511 31.748 38.9955 30.468 38.9955H27.0547V51.9555H30.468ZM46.5668 54.5422C45.2512 54.5422 44.0868 54.2755 43.0735 53.7422C42.0601 53.1911 41.2779 52.4266 40.7268 51.4488C40.1757 50.4711 39.9001 49.3511 39.9001 48.0888V42.8888C39.9001 41.6088 40.1757 40.4799 40.7268 39.5022C41.2957 38.5244 42.0779 37.7688 43.0735 37.2355C44.0868 36.6844 45.2512 36.4088 46.5668 36.4088C47.8824 36.4088 49.0468 36.6844 50.0601 37.2355C51.0735 37.7688 51.8557 38.5333 52.4068 39.5288C52.9757 40.5066 53.2601 41.6266 53.2601 42.8888V48.0888C53.2601 49.3511 52.9757 50.4711 52.4068 51.4488C51.8557 52.4266 51.0735 53.1911 50.0601 53.7422C49.0646 54.2755 47.9001 54.5422 46.5668 54.5422ZM46.5668 52.2222C47.8824 52.2222 48.9135 51.8488 49.6601 51.1022C50.4068 50.3377 50.7801 49.3066 50.7801 48.0088V42.9955C50.7801 41.6444 50.4068 40.5955 49.6601 39.8488C48.9135 39.1022 47.8824 38.7288 46.5668 38.7288C45.2512 38.7288 44.229 39.1022 43.5001 39.8488C42.7712 40.5955 42.4068 41.6444 42.4068 42.9955V48.0088C42.4068 49.3422 42.7712 50.3822 43.5001 51.1288C44.229 51.8577 45.2512 52.2222 46.5668 52.2222Z" fill="currentColor"/>
<path d="M14.3999 16.16V16.3334H13.2212L11.0719 12.9476L10.0319 14.2418V16.3334H8.94566V8.75293H10.0319V12.5663L13.175 8.75293H14.3305V8.92626L11.8114 12.0463L14.3999 16.16ZM20.3737 15.3627V16.3334H15.4279V15.3743L17.5772 13.2596C18.0009 12.8436 18.3206 12.5085 18.5363 12.2543C18.752 11.9923 18.9022 11.7612 18.987 11.5609C19.0717 11.3606 19.1141 11.1449 19.1141 10.9138V10.7983C19.1141 10.4285 18.9947 10.1396 18.7559 9.9316C18.5248 9.7236 18.1974 9.6196 17.7737 9.6196C17.3499 9.6196 17.0187 9.7313 16.7799 9.95471C16.5411 10.1704 16.4217 10.4747 16.4217 10.8676V11.1103H15.3585V10.856C15.3585 10.155 15.5704 9.60804 15.9941 9.21515C16.4255 8.81456 17.0187 8.61426 17.7737 8.61426C18.5209 8.61426 19.1064 8.81071 19.5301 9.2036C19.9615 9.58878 20.1772 10.1203 20.1772 10.7983V10.9138C20.1772 11.3683 20.0501 11.8113 19.7959 12.2427C19.5417 12.6664 19.0871 13.2018 18.4323 13.8489L16.8954 15.3627H20.3737Z" fill="currentColor"/>
</svg>
