<svg width="64" height="64" viewBox="0 0 64 64" fill="none" xmlns="http://www.w3.org/2000/svg">
  <path d="M49.5597 1.12835C49.5689 1.13882 49.5782 1.14942 49.5877 1.16014C49.9609 1.58528 50.495 2.20201 51.1363 2.96605C52.4195 4.4949 54.1289 6.60982 55.8365 8.95732C57.5462 11.3076 59.2432 13.876 60.5098 16.3135C61.7889 18.7752 62.5763 21.0062 62.5763 22.7097C62.5763 29.8652 56.7173 35.7231 49.5597 35.7231C42.4022 35.7231 36.5431 29.8652 36.5431 22.7097C36.5431 21.0062 37.3306 18.7752 38.6097 16.3135C39.8762 13.876 41.5733 11.3076 43.2829 8.95732C44.9906 6.60982 46.6999 4.4949 47.9832 2.96605C48.6245 2.20201 49.1586 1.58528 49.5318 1.16014C49.5412 1.14942 49.5505 1.13882 49.5597 1.12835ZM31.6632 28.6552C31.6724 28.6657 31.6817 28.6763 31.6911 28.687C32.0643 29.1122 32.5984 29.7289 33.2397 30.4929C34.523 32.0218 36.2323 34.1367 37.9399 36.4842C39.6496 38.8344 41.3467 41.4029 42.6132 43.8404C43.8923 46.3021 44.6797 48.5331 44.6797 50.2366C44.6797 57.3921 38.8207 63.25 31.6632 63.25C24.5056 63.25 18.6466 57.3921 18.6466 50.2366C18.6466 48.5331 19.434 46.3021 20.7131 43.8404C21.9797 41.4029 23.6767 38.8344 25.3864 36.4842C27.094 34.1367 28.8033 32.0218 30.0866 30.4929C30.7279 29.7289 31.262 29.1122 31.6352 28.687C31.6446 28.6763 31.654 28.6657 31.6632 28.6552ZM13.7666 1.12835C13.7758 1.13882 13.7851 1.14942 13.7945 1.16014C14.1678 1.58528 14.7019 2.20201 15.3432 2.96605C16.6264 4.4949 18.3357 6.60982 20.0434 8.95732C21.753 11.3076 23.4501 13.876 24.7166 16.3135C25.9957 18.7752 26.7832 21.0062 26.7832 22.7097C26.7832 29.8652 20.9242 35.7231 13.7666 35.7231C6.60902 35.7231 0.75 29.8652 0.75 22.7097C0.75 21.0062 1.53746 18.7752 2.81655 16.3135C4.08309 13.876 5.78014 11.3076 7.4898 8.95732C9.19746 6.60982 10.9068 4.4949 12.19 2.96605C12.8313 2.20201 13.3654 1.58528 13.7387 1.16014C13.7481 1.14942 13.7574 1.13882 13.7666 1.12835Z" stroke="#191919" stroke-width="1.5"></path>
</svg>
