<svg width="28" height="28" viewBox="0 0 28 28" fill="none" xmlns="http://www.w3.org/2000/svg">
<path d="M0 14C0 15.7125 0.308055 17.3529 0.870789 18.8695L14 19.4783L27.1292 18.8696C27.692 17.3529 28 15.7125 28 14C28 12.2875 27.692 10.6471 27.1292 9.13045L14 8.52173L0.870789 9.1304C0.308055 10.6471 0 12.2875 0 14H0Z" fill="black"/>
<path d="M14.0003 0C7.9808 0 2.8492 3.79925 0.871094 9.13046H27.1296C25.1514 3.79925 20.0198 0 14.0003 0Z" fill="#0052B4"/>
<path d="M27.1295 18.8695H0.871094C2.8492 24.2007 7.9808 28 14.0003 28C20.0198 28 25.1514 24.2007 27.1295 18.8695Z" fill="#F0F0F0"/>
</svg>
