<svg width="64" height="64" viewBox="0 0 64 64" fill="none" xmlns="http://www.w3.org/2000/svg">
<path d="M45.001 54V40C45.001 34.4772 40.5238 30 35.001 30H29.001C26.7493 30 24.6715 30.7442 23 32" stroke="currentColor" stroke-width="1.5"/>
<path d="M63.001 54V40C63.001 34.4772 58.5238 30 53.001 30H47.001C44.7493 30 42.6715 30.7442 41 32" stroke="currentColor" stroke-width="1.5"/>
<path d="M27 54V40C27 34.4772 22.5228 30 17 30H11C5.47715 30 1 34.4772 1 40V54" stroke="currentColor" stroke-width="1.5"/>
<circle cx="32" cy="17" r="7.25" stroke="currentColor" stroke-width="1.5"/>
<circle cx="50" cy="17" r="7.25" stroke="currentColor" stroke-width="1.5"/>
<circle cx="14" cy="17" r="7.25" stroke="currentColor" stroke-width="1.5"/>
</svg>
