<svg width="64" height="64" viewBox="0 0 64 64" fill="none" xmlns="http://www.w3.org/2000/svg">
<path d="M64 20C48 20 48 38 32 38C16 38 16 20 0 20" stroke="currentColor" stroke-width="1.5"/>
<path d="M64 26C50 26 50 44 32 44C14 44 14 26 0 26" stroke="currentColor" stroke-width="1.5"/>
<rect x="0.75" y="0.75" width="62.5" height="62.5" rx="15.25" stroke="currentColor" stroke-width="1.5"/>
<path d="M32 13.75C32.6904 13.75 33.25 14.3096 33.25 15C33.25 15.6904 32.6904 16.25 32 16.25C31.3096 16.25 30.75 15.6904 30.75 15C30.75 14.6472 30.8951 14.3297 31.131 14.1015C31.3566 13.8832 31.662 13.75 32 13.75Z" stroke="currentColor" stroke-width="1.5"/>
<path d="M8 13.75C8.69036 13.75 9.25 14.3096 9.25 15C9.25 15.6904 8.69036 16.25 8 16.25C7.30964 16.25 6.75 15.6904 6.75 15C6.75 14.6472 6.89515 14.3297 7.13097 14.1015C7.35664 13.8832 7.662 13.75 8 13.75Z" stroke="currentColor" stroke-width="1.5"/>
<path d="M56 13.75C56.6904 13.75 57.25 14.3096 57.25 15C57.25 15.6904 56.6904 16.25 56 16.25C55.3096 16.25 54.75 15.6904 54.75 15C54.75 14.6472 54.8951 14.3297 55.131 14.1015C55.3566 13.8832 55.662 13.75 56 13.75Z" stroke="currentColor" stroke-width="1.5"/>
<path d="M20 7.75C20.6904 7.75 21.25 8.30964 21.25 9C21.25 9.69036 20.6904 10.25 20 10.25C19.3096 10.25 18.75 9.69036 18.75 9C18.75 8.64723 18.8951 8.32967 19.131 8.10151C19.3566 7.88316 19.662 7.75 20 7.75Z" stroke="currentColor" stroke-width="1.5"/>
<path d="M44 7.75C44.6904 7.75 45.25 8.30964 45.25 9C45.25 9.69036 44.6904 10.25 44 10.25C43.3096 10.25 42.75 9.69036 42.75 9C42.75 8.64723 42.8951 8.32967 43.131 8.10151C43.3566 7.88316 43.662 7.75 44 7.75Z" stroke="currentColor" stroke-width="1.5"/>
<path d="M32 25.75C32.6904 25.75 33.25 26.3096 33.25 27C33.25 27.6904 32.6904 28.25 32 28.25C31.3096 28.25 30.75 27.6904 30.75 27C30.75 26.6472 30.8951 26.3297 31.131 26.1015C31.3566 25.8832 31.662 25.75 32 25.75Z" stroke="currentColor" stroke-width="1.5"/>
<path d="M20 19.75C20.6904 19.75 21.25 20.3096 21.25 21C21.25 21.6904 20.6904 22.25 20 22.25C19.3096 22.25 18.75 21.6904 18.75 21C18.75 20.6472 18.8951 20.3297 19.131 20.1015C19.3566 19.8832 19.662 19.75 20 19.75Z" stroke="currentColor" stroke-width="1.5"/>
<path d="M44 19.75C44.6904 19.75 45.25 20.3096 45.25 21C45.25 21.6904 44.6904 22.25 44 22.25C43.3096 22.25 42.75 21.6904 42.75 21C42.75 20.6472 42.8951 20.3297 43.131 20.1015C43.3566 19.8832 43.662 19.75 44 19.75Z" stroke="currentColor" stroke-width="1.5"/>
</svg>
