<svg width="28" height="28" viewBox="0 0 28 28" fill="none" xmlns="http://www.w3.org/2000/svg">
<path d="M0.871094 18.8695C2.8492 24.2007 7.9808 28 14.0003 28C20.0198 28 25.1514 24.2007 27.1295 18.8695L14.0003 17.6522L0.871094 18.8695Z" fill="#FFDA44"/>
<path d="M14.0003 0C7.9808 0 2.8492 3.79925 0.871094 9.13046L14.0003 10.3478L27.1295 9.13041C25.1514 3.79925 20.0198 0 14.0003 0Z" fill="black"/>
<path d="M0.870789 9.13046C0.308055 10.6471 0 12.2875 0 14C0 15.7125 0.308055 17.3529 0.870789 18.8695H27.1293C27.692 17.3529 28 15.7125 28 14C28 12.2875 27.692 10.6471 27.1292 9.13046H0.870789Z" fill="#D80027"/>
</svg>
