<svg width="64" height="64" viewBox="0 0 64 64" fill="none" xmlns="http://www.w3.org/2000/svg">
<path d="M15.75 40.0799C15.75 37.8896 16.7687 35.0173 18.3959 31.8651C20.0102 28.7382 22.1707 25.4337 24.3435 22.4085C26.5144 19.386 28.6869 16.6571 30.3175 14.683C31.1325 13.6963 31.8113 12.8991 32.2859 12.3492C32.3507 12.2741 32.4117 12.2036 32.4687 12.1379C32.5258 12.2036 32.5867 12.2741 32.6516 12.3492C33.1262 12.8991 33.805 13.6963 34.62 14.683C36.2506 16.6571 38.4231 19.386 40.594 22.4085C42.7668 25.4337 44.9273 28.7382 46.5416 31.8651C48.1688 35.0173 49.1875 37.8896 49.1875 40.0799C49.1875 49.1734 41.7119 56.5625 32.4688 56.5625C23.2256 56.5625 15.75 49.1734 15.75 40.0799Z" stroke="currentColor" stroke-width="1.5"/>
<path d="M32.0625 34.75V64" stroke="currentColor" stroke-width="1.5" stroke-linejoin="round"/>
<rect x="0.75" y="0.75" width="62.5" height="62.5" rx="15.25" stroke="currentColor" stroke-width="1.5"/>
</svg>
