<svg width="43" height="64" viewBox="0 0 43 64" fill="none" xmlns="http://www.w3.org/2000/svg">
  <path d="M0.750002 35.7907C0.750002 33.0513 2.02064 29.485 4.02581 25.6008C6.01798 21.7418 8.6824 17.6671 11.3592 13.9403C14.0339 10.2162 16.7103 6.85437 18.7189 4.4227C19.7228 3.20725 20.5591 2.22513 21.144 1.54744C21.2757 1.39474 21.3947 1.25752 21.5 1.13657C21.6053 1.25752 21.7242 1.39474 21.856 1.54744C22.4409 2.22513 23.2772 3.20725 24.2811 4.4227C26.2897 6.85437 28.9661 10.2162 31.6408 13.9403C34.3176 17.6671 36.982 21.7418 38.9742 25.6008C40.9794 29.485 42.25 33.0513 42.25 35.7907C42.25 47.0805 32.9696 56.25 21.5 56.25C10.0304 56.25 0.750003 47.0805 0.750002 35.7907Z" stroke="#191919" stroke-width="1.5"></path>
  <path d="M21 28V64" stroke="#191919" stroke-width="1.5" stroke-linejoin="round"></path>
</svg>
