<svg width="64" height="64" viewBox="0 0 64 64" fill="none" xmlns="http://www.w3.org/2000/svg">
<path d="M17.75 34.7442C17.75 32.8272 18.6453 30.3 20.088 27.5118C21.5176 24.7488 23.432 21.8272 25.3587 19.1507C27.2834 16.477 29.2098 14.0626 30.6558 12.316C31.3785 11.443 31.9805 10.7377 32.4012 10.2512C32.4354 10.2118 32.4683 10.1738 32.5 10.1372C32.5317 10.1738 32.5646 10.2118 32.5988 10.2512C33.0195 10.7377 33.6215 11.443 34.3442 12.316C35.7902 14.0626 37.7165 16.477 39.6413 19.1507C41.568 21.8272 43.4824 24.7488 44.912 27.5118C46.3547 30.3 47.25 32.8272 47.25 34.7442C47.25 42.7443 40.6575 49.25 32.5 49.25C24.3425 49.25 17.75 42.7443 17.75 34.7442Z" stroke="currentColor" stroke-width="1.5"/>
<path d="M32 33L32 56" stroke="currentColor" stroke-width="1.5" stroke-linejoin="round"/>
<path d="M61 56H3" stroke="currentColor" stroke-width="1.5" stroke-linejoin="round"/>
<rect x="0.75" y="0.75" width="62.5" height="62.5" rx="15.25" stroke="currentColor" stroke-width="1.5"/>
</svg>
