<svg width="28" height="28" viewBox="0 0 28 28" fill="none" xmlns="http://www.w3.org/2000/svg">
<path d="M14 28C21.732 28 28 21.732 28 14C28 6.26801 21.732 0 14 0C6.26801 0 0 6.26801 0 14C0 21.732 6.26801 28 14 28Z" fill="#F0F0F0"/>
<path d="M14 10.3478H27.5177C27.1667 9.04542 26.6331 7.81818 25.9452 6.69556H14V10.3478Z" fill="#338AF3"/>
<path d="M5.28502 24.9565H22.7146C23.9923 23.9389 25.088 22.7028 25.945 21.3043H2.05469C2.9117 22.7028 4.00741 23.9389 5.28502 24.9565Z" fill="#338AF3"/>
<path d="M4.8694 3.38733C3.76876 4.33512 2.81725 5.45124 2.05469 6.6957H4.8694V3.38733Z" fill="#338AF3"/>
<path d="M14 14C14 12.5739 14 11.3805 14 10.3478H8.52173V14H4.86954V10.3478H0.482289C0.168438 11.5123 0 12.7363 0 14C0 15.2636 0.168438 16.4877 0.482289 17.6522H27.5178C27.8316 16.4877 28 15.2636 28 14H14Z" fill="#338AF3"/>
<path d="M14.0017 0C12.0576 0 10.2062 0.396648 8.52344 1.11278V6.69566H14.0017C14.0017 5.42079 14.0017 4.3365 14.0017 3.04347H22.7166C20.325 1.13881 17.2966 0 14.0017 0Z" fill="#338AF3"/>
</svg>
