<svg width="28" height="28" viewBox="0 0 28 28" fill="none" xmlns="http://www.w3.org/2000/svg">
<path d="M0.870789 9.13048C0.308055 10.6472 0 12.2875 0 14C0 15.7125 0.308055 17.353 0.870789 18.8696L14 20.087L27.1292 18.8696C27.6919 17.353 28 15.7125 28 14C28 12.2875 27.6919 10.6472 27.1292 9.13048L14 7.91309L0.870789 9.13048Z" fill="#F0F0F0"/>
<path d="M14.0002 0C7.98079 0 2.84914 3.79925 0.871094 9.13046H27.1296C25.1513 3.79925 20.0198 0 14.0002 0Z" fill="#D80027"/>
<path d="M14.0002 28.0001C20.0198 28.0001 25.1513 24.2008 27.1295 18.8696H0.871094C2.84914 24.2008 7.98079 28.0001 14.0002 28.0001Z" fill="#6DA544"/>
</svg>
