<svg width="28" height="28" viewBox="0 0 28 28" fill="none" xmlns="http://www.w3.org/2000/svg">
<path d="M14 28C21.732 28 28 21.732 28 14C28 6.26801 21.732 0 14 0C6.26801 0 0 6.26801 0 14C0 21.732 6.26801 28 14 28Z" fill="#F0F0F0"/>
<path d="M14.0014 0C8.451 0 3.65512 3.23012 1.39062 7.91306H26.6122C24.3478 3.23012 19.5518 0 14.0014 0Z" fill="#FF9811"/>
<path d="M14.0014 28C19.5518 28 24.3478 24.7699 26.6123 20.0869H1.39062C3.65512 24.7699 8.451 28 14.0014 28Z" fill="#6DA544"/>
<path d="M13.9984 18.8695C16.6878 18.8695 18.868 16.6893 18.868 14C18.868 11.3106 16.6878 9.13043 13.9984 9.13043C11.3091 9.13043 9.12891 11.3106 9.12891 14C9.12891 16.6893 11.3091 18.8695 13.9984 18.8695Z" fill="#0052B4"/>
<path d="M14.0005 17.0435C15.6814 17.0435 17.044 15.6809 17.044 14C17.044 12.3191 15.6814 10.9565 14.0005 10.9565C12.3196 10.9565 10.957 12.3191 10.957 14C10.957 15.6809 12.3196 17.0435 14.0005 17.0435Z" fill="#F0F0F0"/>
<path d="M13.9985 10.2444L14.9375 12.3738L17.251 12.1222L15.8763 14L17.251 15.8778L14.9375 15.6262L13.9985 17.7556L13.0596 15.6262L10.7461 15.8777L12.1207 14L10.7461 12.1222L13.0596 12.3738L13.9985 10.2444Z" fill="#0052B4"/>
</svg>
