<svg width="28" height="28" viewBox="0 0 28 28" fill="none" xmlns="http://www.w3.org/2000/svg">
<path d="M27.1292 18.8696C27.692 17.353 28 15.7125 28 14C28 12.2875 27.692 10.6471 27.1292 9.13048L14 7.91309L0.870789 9.13048C0.308 10.6471 0 12.2875 0 14C0 15.7125 0.308 17.353 0.870789 18.8696L14 20.087L27.1292 18.8696Z" fill="#6DA544"/>
<path d="M27.1295 9.13046C25.1514 3.79925 20.0198 0 14.0003 0C7.9808 0 2.8492 3.79925 0.871094 9.13046H27.1295Z" fill="#FFDA44"/>
<path d="M14.0003 28C20.0198 28 25.1514 24.2007 27.1295 18.8695H0.871094C2.8492 24.2007 7.9808 28 14.0003 28Z" fill="#D80027"/>
</svg>
