<svg fill="none" height="48" viewBox="0 0 48 48" width="48" xmlns="http://www.w3.org/2000/svg"><g stroke="#585f69" stroke-width="1.5"><path d="m41.25 17.8605c0 2.2781-1.0527 5.2606-2.7298 8.5282-1.6642 3.2426-3.8913 6.6688-6.1306 9.8047-2.2373 3.1333-4.4763 5.9621-6.1567 8.0085-.8399 1.0228-1.5395 1.8491-2.0287 2.4193-.0728.0848-.141.164-.2042.2373-.0632-.0733-.1314-.1525-.2042-.2373-.4892-.5702-1.1888-1.3965-2.0287-2.4193-1.6804-2.0464-3.9194-4.8752-6.1567-8.0085-2.2393-3.1359-4.4664-6.5621-6.13065-9.8047-1.67705-3.2676-2.72975-6.2501-2.72975-8.5282 0-9.44439 7.7176-17.1105 17.25-17.1105s17.25 7.66611 17.25 17.1105z"/><g stroke-linejoin="round"><path d="m15 18h18"/><path d="m24 27v-18"/></g></g></svg>