<svg width="64" height="64" viewBox="0 0 64 64" fill="none" xmlns="http://www.w3.org/2000/svg">
<path d="M55.25 23.814C55.25 26.9141 53.8223 30.9355 51.5827 35.2991C49.356 39.6377 46.3789 44.2169 43.3896 48.4032C40.4023 52.5867 37.4133 56.3631 35.1704 59.0945C34.0492 60.4598 33.1152 61.563 32.462 62.3243C32.2873 62.528 32.1327 62.7071 32 62.8603C31.8673 62.7071 31.7127 62.528 31.538 62.3243C30.8848 61.563 29.9508 60.4598 28.8296 59.0945C26.5867 56.3631 23.5977 52.5867 20.6104 48.4032C17.6211 44.2169 14.644 39.6377 12.4173 35.2991C10.1777 30.9355 8.75 26.9141 8.75 23.814C8.75 11.0816 19.1539 0.75 32 0.75C44.8461 0.75 55.25 11.0816 55.25 23.814Z" stroke="currentColor" stroke-width="1.5"/>
<path d="M20 24L44 24" stroke="currentColor" stroke-width="1.5" stroke-linejoin="round"/>
<path d="M32 36L32 12" stroke="currentColor" stroke-width="1.5" stroke-linejoin="round"/>
</svg>
