<svg width="28" height="28" viewBox="0 0 28 28" fill="none" xmlns="http://www.w3.org/2000/svg">
<path d="M14 28C21.732 28 28 21.732 28 14C28 6.26801 21.732 0 14 0C6.26801 0 0 6.26801 0 14C0 21.732 6.26801 28 14 28Z" fill="#F0F0F0"/>
<path d="M27.999 14C27.999 8.44953 24.7689 3.65366 20.0859 1.38916V26.6108C24.7689 24.3463 27.999 19.5504 27.999 14Z" fill="#D80027"/>
<path d="M0 14C0 19.5504 3.23012 24.3463 7.91306 26.6108V1.38916C3.23012 3.65366 0 8.44953 0 14Z" fill="#6DA544"/>
<path d="M10.3477 14C10.3477 16.017 11.9828 17.6522 13.9999 17.6522C16.0169 17.6522 17.652 16.017 17.652 14V12.7826H10.3477V14Z" fill="#6DA544"/>
<path d="M18.8681 11.5652H15.2159C15.2159 10.8928 14.6708 10.3478 13.9985 10.3478C13.3262 10.3478 12.7811 10.8928 12.7811 11.5652H9.12891C9.12891 12.2376 9.71455 12.7826 10.3868 12.7826H10.3463C10.3463 13.455 10.8913 14 11.5637 14C11.5637 14.6724 12.1087 15.2174 12.7811 15.2174H15.2159C15.8883 15.2174 16.4333 14.6724 16.4333 14C17.1057 14 17.6507 13.455 17.6507 12.7826H17.6101C18.2825 12.7826 18.8681 12.2376 18.8681 11.5652Z" fill="#FF9811"/>
</svg>
