<svg width="28" height="28" viewBox="0 0 28 28" fill="none" xmlns="http://www.w3.org/2000/svg">
<g clip-path="url(#clip0_4041_20762)">
<path d="M14 28C21.732 28 28 21.732 28 14C28 6.26801 21.732 0 14 0C6.26801 0 0 6.26801 0 14C0 21.732 6.26801 28 14 28Z" fill="#F0F0F0"/>
<path d="M0.480469 17.6521C1.2905 20.6577 3.07577 23.2627 5.47645 25.1072V17.6521H0.480469Z" fill="#D80027"/>
<path d="M12.7812 27.9466C13.1825 27.9812 13.5884 27.9999 13.9986 27.9999C20.467 27.9999 25.9098 23.6128 27.5163 17.6521H12.7812V27.9466Z" fill="#D80027"/>
<path d="M27.5163 10.3478C25.9098 4.38709 20.467 0 13.9986 0C13.5884 0 13.1825 0.0187031 12.7812 0.0532656V10.3478H27.5163Z" fill="#D80027"/>
<path d="M5.47645 2.89258C3.07577 4.73719 1.2905 7.34211 0.480469 10.3477H5.47645V2.89258Z" fill="#D80027"/>
<path d="M27.8815 12.1739H10.9566H10.9565V0.332764C9.66273 0.619654 8.43615 1.08466 7.30434 1.70225V12.1738V12.1739H0.118508C0.0405781 12.7717 0 13.3811 0 14C0 14.6189 0.0405781 15.2283 0.118508 15.8261H7.30428H7.30434V26.2977C8.43615 26.9152 9.66273 27.3803 10.9565 27.6672V15.8262V15.8261H27.8815C27.9593 15.2283 28 14.6189 28 14C28 13.3811 27.9593 12.7717 27.8815 12.1739Z" fill="#0052B4"/>
</g>
<defs>
<clipPath id="clip0_4041_20762">
<rect width="28" height="28" fill="white"/>
</clipPath>
</defs>
</svg>
