<svg width="64" height="64" viewBox="0 0 64 64" fill="none" xmlns="http://www.w3.org/2000/svg">
<rect x="4.75" y="4.75" width="54.5" height="54.5" rx="7.25" stroke="currentColor" stroke-width="1.5"/>
<path d="M33.6285 22.008C35.5272 22.008 36.9992 22.4987 38.0445 23.48C39.1112 24.44 39.6445 25.784 39.6445 27.512V27.896C39.6445 29.624 39.1112 30.9787 38.0445 31.96C36.9992 32.92 35.5272 33.4 33.6285 33.4H27.0685V43H25.5965V22.008H33.6285ZM33.5965 32.056C35.0898 32.056 36.2312 31.704 37.0205 31C37.8098 30.2747 38.2045 29.24 38.2045 27.896V27.512C38.2045 26.168 37.8098 25.144 37.0205 24.44C36.2312 23.7147 35.0898 23.352 33.5965 23.352H27.0685V32.056H33.5965Z" fill="currentColor"/>
</svg>
