<svg width="64" height="64" viewBox="0 0 64 64" fill="none" xmlns="http://www.w3.org/2000/svg">
<path d="M17.1788 4.91856L33.1165 9.18907L27.8755 28.7491C26.6962 33.1502 22.1724 35.762 17.7713 34.5827C13.3702 33.4034 10.7584 28.8797 11.9377 24.4786L17.1788 4.91856Z" stroke="currentColor" stroke-width="1.5"/>
<path d="M17.8359 34.3412L13.6948 49.7961" stroke="currentColor" stroke-width="1.5"/>
<path d="M6.92969 47.9843L20.4526 51.6078" stroke="currentColor" stroke-width="1.5"/>
<path d="M31.9186 19.1891L47.8563 14.9186L53.0974 34.4786C54.2767 38.8797 51.6649 43.4034 47.2638 44.5827C42.8627 45.762 38.3389 43.1502 37.1596 38.7491L31.9186 19.1891Z" stroke="currentColor" stroke-width="1.5"/>
<path d="M47.1953 44.3412L51.3364 59.7961" stroke="currentColor" stroke-width="1.5"/>
<path d="M44.5781 61.6078L58.1011 57.9843" stroke="currentColor" stroke-width="1.5"/>
<path d="M31 15L14 15" stroke="currentColor" stroke-width="1.5"/>
<path d="M51 27L34 27" stroke="currentColor" stroke-width="1.5"/>
</svg>
