<svg width="64" height="64" viewBox="0 0 64 64" fill="none" xmlns="http://www.w3.org/2000/svg">
<path d="M20 64V32" stroke="currentColor" stroke-width="1.5" stroke-linejoin="round"/>
<path d="M44 64V32" stroke="currentColor" stroke-width="1.5" stroke-linejoin="round"/>
<circle cx="44" cy="16" r="15.25" stroke="currentColor" stroke-width="1.5"/>
<mask id="path-4-inside-1_1014_1595" fill="none">
<path fill-rule="evenodd" clip-rule="evenodd" d="M32.9537 6.6065C30.7998 9.13689 29.5 12.4166 29.5 16C29.5 19.5834 30.7998 22.8631 32.9537 25.3935C30.0456 29.3969 25.3268 32 20 32C11.1634 32 4 24.8366 4 16C4 7.16344 11.1634 0 20 0C25.3268 0 30.0456 2.60305 32.9537 6.6065Z"/>
</mask>
<path d="M32.9537 6.6065L34.0959 7.57877L34.861 6.67993L34.1673 5.72493L32.9537 6.6065ZM32.9537 25.3935L34.1673 26.2751L34.861 25.3201L34.0959 24.4212L32.9537 25.3935ZM31 16C31 12.7861 32.1643 9.84807 34.0959 7.57877L31.8115 5.63423C29.4354 8.4257 28 12.0471 28 16H31ZM34.0959 24.4212C32.1643 22.1519 31 19.2139 31 16H28C28 19.9529 29.4354 23.5743 31.8115 26.3658L34.0959 24.4212ZM31.7401 24.5119C29.102 28.1436 24.8263 30.5 20 30.5V33.5C25.8273 33.5 30.9891 30.6503 34.1673 26.2751L31.7401 24.5119ZM20 30.5C11.9919 30.5 5.5 24.0081 5.5 16H2.5C2.5 25.665 10.335 33.5 20 33.5V30.5ZM5.5 16C5.5 7.99187 11.9919 1.5 20 1.5V-1.5C10.335 -1.5 2.5 6.33502 2.5 16H5.5ZM20 1.5C24.8263 1.5 29.102 3.85643 31.7401 7.48808L34.1673 5.72493C30.9891 1.34967 25.8273 -1.5 20 -1.5V1.5Z" fill="none" mask="url(#path-4-inside-1_1014_1595)"/>
</svg>
