<svg width="28" height="28" viewBox="0 0 28 28" fill="none" xmlns="http://www.w3.org/2000/svg">
<path d="M0 14.0001C0 20.0195 3.79925 25.1511 9.13035 27.1292L10.3478 14L9.13035 0.87085C3.79925 2.84901 0 7.98055 0 14.0001Z" fill="#6DA544"/>
<path d="M27.9985 14C27.9985 6.26806 21.7305 0 13.9986 0C12.2861 0 10.6456 0.308055 9.12891 0.870789V27.1292C10.6456 27.692 12.2861 28 13.9986 28C21.7305 28 27.9985 21.7319 27.9985 14Z" fill="#D80027"/>
<path d="M9.13126 18.8694C11.8206 18.8694 14.0008 16.6893 14.0008 13.9999C14.0008 11.3105 11.8206 9.13037 9.13126 9.13037C6.44189 9.13037 4.26172 11.3105 4.26172 13.9999C4.26172 16.6893 6.44189 18.8694 9.13126 18.8694Z" fill="#FFDA44"/>
<path d="M6.39062 11.5652V14.6087C6.39062 16.1214 7.61694 17.3478 9.12976 17.3478C10.6426 17.3478 11.8689 16.1215 11.8689 14.6087V11.5652H6.39062Z" fill="#D80027"/>
<path d="M9.13181 15.5218C8.62836 15.5218 8.21875 15.1122 8.21875 14.6087V13.3914H10.0448V14.6088C10.0448 15.1122 9.63521 15.5218 9.13181 15.5218Z" fill="#F0F0F0"/>
</svg>
