<svg width="64" height="64" viewBox="0 0 64 64" fill="none" xmlns="http://www.w3.org/2000/svg">
<path fill-rule="evenodd" clip-rule="evenodd" d="M46.0491 35C44.6673 41.5686 38.8394 46.5 31.8598 46.5C24.8802 46.5 19.0524 41.5686 17.6706 35H16.1406C17.5448 42.4026 24.0487 48 31.8598 48C39.671 48 46.1748 42.4026 47.579 35H46.0491ZM17.6706 29C19.0524 22.4314 24.8802 17.5 31.8598 17.5C38.8394 17.5 44.6673 22.4314 46.0491 29H47.579C46.1748 21.5974 39.671 16 31.8598 16C24.0487 16 17.5448 21.5974 16.1406 29H17.6706Z" fill="currentColor"/>
<path fill-rule="evenodd" clip-rule="evenodd" d="M54.1629 35C52.6963 46.0081 43.2704 54.5 31.8612 54.5C20.452 54.5 11.0261 46.0081 9.55945 35H8.04688C9.52317 46.8389 19.6223 56 31.8612 56C44.1 56 54.1992 46.8389 55.6755 35H54.1629ZM9.55945 29C11.0261 17.9919 20.452 9.5 31.8612 9.5C43.2704 9.5 52.6963 17.9919 54.1629 29H55.6755C54.1992 17.1611 44.1 8 31.8612 8C19.6223 8 9.52317 17.1611 8.04688 29H9.55945Z" fill="currentColor"/>
<path fill-rule="evenodd" clip-rule="evenodd" d="M62.2156 35C60.7085 50.4366 47.6936 62.5 31.8612 62.5C16.0288 62.5 3.01397 50.4366 1.5069 35H2.70666e-08C1.5124 51.2664 15.1998 64 31.8612 64C48.5227 64 62.21 51.2664 63.7225 35H62.2156ZM1.5069 29C3.01397 13.5634 16.0288 1.5 31.8612 1.5C40.466 1.5 48.2363 5.06132 53.7832 10.7944C58.4425 15.61 61.5279 21.9527 62.2156 29H63.7225C63.0295 21.5472 59.7808 14.836 54.8612 9.75136C49.0434 3.73831 40.8889 0 31.8612 0C15.1998 0 1.5124 12.7336 0 29H1.5069Z" fill="currentColor"/>
</svg>
