<svg width="28" height="28" viewBox="0 0 28 28" fill="none" xmlns="http://www.w3.org/2000/svg">
<g clip-path="url(#clip0_4041_20806)">
<path d="M18.8705 0.870734C17.3538 0.308055 15.7135 7.27876e-09 14.001 7.27876e-09C12.2885 -5.46802e-05 10.6481 0.308055 9.13146 0.870734L7.91406 13.9999L9.13146 27.1292C10.6481 27.692 12.2885 28 14.001 28C15.7134 28 17.3539 27.692 18.8705 27.1292L20.0879 14L18.8705 0.870734Z" fill="#FFDA44"/>
<path d="M28.0016 14.0001C28.0016 7.98061 24.2023 2.8489 18.8711 0.87085V27.1294C24.2023 25.1511 28.0015 20.0196 28.0016 14.0001Z" fill="#D80027"/>
<path d="M0 13.9999C0 20.0196 3.79925 25.151 9.13035 27.1293L9.13041 0.87085C3.79925 2.8489 0 7.98044 0 13.9999H0Z" fill="#0052B4"/>
</g>
<defs>
<clipPath id="clip0_4041_20806">
<rect width="28" height="28" fill="white"/>
</clipPath>
</defs>
</svg>
