<svg width="65" height="64" viewBox="0 0 65 64" fill="none" xmlns="http://www.w3.org/2000/svg">
<path d="M18.8645 52.29C27.2891 45.242 36.9045 52.9987 45.7049 45.6362C53.3908 39.2063 63.0914 30.9256 63.0914 30.9256C61.1574 28.1392 57.4104 27.3099 54.0123 29.4921C50.8554 31.5165 40.5099 38.718 40.5099 38.718" stroke="currentColor" stroke-width="1.5" stroke-miterlimit="10"/>
<path d="M29.2768 39.2428C29.2768 39.2428 31.2402 39.362 37.4636 39.8152C42.1136 40.1533 42.7069 33.7771 38.0603 33.293C34.5138 32.9236 28.601 32.4418 26.799 32.3638C24.1257 32.2438 20.1628 32.8065 16.8633 34.9502C14.224 36.6627 9.79507 40.6763 9.79507 40.6763" stroke="currentColor" stroke-width="1.5" stroke-miterlimit="10"/>
<path d="M1.53819 43.2656L5.43214 40.1695C6.83711 39.0525 8.88162 39.2859 9.99868 40.6908L18.3624 51.2101C19.4794 52.6151 19.246 54.6596 17.8411 55.7766L13.9471 58.8727L1.53819 43.2656Z" stroke="currentColor" stroke-width="1.5"/>
<circle cx="32" cy="16" r="11.25" stroke="currentColor" stroke-width="1.5"/>
</svg>
