<svg width="64" height="64" viewBox="0 0 64 64" fill="none" xmlns="http://www.w3.org/2000/svg">
<path d="M3.33817 26.9538C1.44246 26.006 0.75 24.8934 0.75 24C0.75 23.1066 1.44246 21.994 3.33817 21.0462L25.0861 10.1722C26.9566 9.23697 29.4579 8.75 32 8.75C34.5421 8.75 37.0434 9.23697 38.9139 10.1722L60.6618 21.0462C62.5575 21.994 63.25 23.1066 63.25 24C63.25 24.8934 62.5575 26.006 60.6618 26.9538L38.9139 37.8278C37.0434 38.763 34.5421 39.25 32 39.25C29.4579 39.25 26.9566 38.763 25.0861 37.8278L3.33817 26.9538Z" stroke="currentColor" stroke-width="1.5"/>
<path fill-rule="evenodd" clip-rule="evenodd" d="M12 32.1233V49.6471C12 49.6471 16.5455 56 32 56C47.4545 56 52 49.6471 52 49.6471V32.1233L50.5 32.8733V49.0889C50.3864 49.2069 50.2374 49.3529 50.0497 49.5204C49.4724 50.0354 48.5246 50.7571 47.1059 51.4914C44.275 52.9568 39.5161 54.5 32 54.5C24.4839 54.5 19.725 52.9568 16.8941 51.4914C15.4755 50.7571 14.5276 50.0354 13.9503 49.5204C13.7626 49.3529 13.6136 49.2069 13.5 49.0889V32.8733L12 32.1233Z" fill="currentColor"/>
<path d="M52 23C56.5 25 59 25.2753 59 30C59 32.5 59 39 59 39" stroke="currentColor" stroke-width="1.5"/>
</svg>
