<svg width="64" height="64" viewBox="0 0 64 64" fill="none" xmlns="http://www.w3.org/2000/svg">
  <path d="M8.75 6.58558L32 0.773082L55.25 6.58558V6.59457V6.61355V6.63281V6.65236V6.6722V6.69233V6.71273V6.73342V6.7544V6.77566V6.7972V6.81902V6.84112V6.8635V6.88617V6.90911V6.93233V6.95583V6.97961V7.00367V7.028V7.05262V7.0775V7.10266V7.1281V7.15381V7.17979V7.20605V7.23258V7.25938V7.28646V7.3138V7.34142V7.36931V7.39746V7.42589V7.45458V7.48354V7.51277V7.54226V7.57202V7.60205V7.63234V7.6629V7.69372V7.7248V7.75615V7.78776V7.81963V7.85176V7.88416V7.91681V7.94972V7.9829V8.01633V8.05002V8.08397V8.11817V8.15263V8.18735V8.22232V8.25755V8.29304V8.32877V8.36476V8.401V8.4375V8.47425V8.51124V8.54849V8.58599V8.62374V8.66174V8.69999V8.73848V8.77722V8.81621V8.85544V8.89493V8.93465V8.97462V9.01484V9.0553V9.096V9.13694V9.17813V9.21956V9.26123V9.30314V9.34529V9.38768V9.43031V9.47318V9.51628V9.55962V9.6032V9.64702V9.69107V9.73535V9.77987V9.82463V9.86961V9.91483V9.96029V10.006V10.0519V10.098V10.1444V10.191V10.2379V10.2849V10.3322V10.3797V10.4275V10.4755V10.5237V10.5721V10.6207V10.6696V10.7187V10.768V10.8176V10.8674V10.9173V10.9676V11.018V11.0686V11.1195V11.1706V11.2219V11.2734V11.3252V11.3771V11.4293V11.4817V11.5343V11.5871V11.6402V11.6934V11.7469V11.8006V11.8545V11.9086V11.9629V12.0174V12.0721V12.1271V12.1822V12.2376V12.2932V12.3489V12.4049V12.4611V12.5175V12.5741V12.6309V12.6879V12.7451V12.8025V12.8601V12.9179V12.976V13.0342V13.0926V13.1512V13.21V13.2691V13.3283V13.3877V13.4473V13.5071V13.5671V13.6273V13.6877V13.7483V13.8091V13.87V13.9312V13.9926V14.0541V14.1158V14.1778V14.2399V14.3022V14.3647V14.4274V14.4903V14.5533V14.6166V14.68V14.7437V14.8075V14.8715V14.9356V15V15.0645V15.1293V15.1942V15.2593V15.3245V15.39V15.4556V15.5214V15.5874V15.6536V15.7199V15.7865V15.8532V15.92V15.9871V16.0543V16.1217V16.1893V16.257V16.325V16.3931V16.4613V16.5298V16.5984V16.6672V16.7361V16.8052V16.8745V16.944V17.0136V17.0834V17.1533V17.2234V17.2937V17.3642V17.4348V17.5056V17.5765V17.6476V17.7189V17.7903V17.8619V17.9337V18.0056V18.0776V18.1499V18.2223V18.2948V18.3675V18.4404V18.5134V18.5865V18.6599V18.7334V18.807V18.8808V18.9547V19.0288V19.1031V19.1775V19.252V19.3267V19.4016V19.4766V19.5517V19.627V19.7024V19.778V19.8538V19.9297V20.0057V20.0819V20.1582V20.2346V20.3113V20.388V20.4649V20.5419V20.6191V20.6964V20.7739V20.8515V20.9292V21.0071V21.0851V21.1632V21.2415V21.3199V21.3985V21.4772V21.556V21.635V21.7141V21.7933V21.8727V21.9521V22.0318V22.1115V22.1914V22.2714V22.3516V22.4319V22.5123V22.5928V22.6734V22.7542V22.8351V22.9162V22.9973V23.0786V23.16V23.2416V23.3232V23.405V23.4869V23.5689V23.6511V23.7334V23.8157V23.8982V23.9809V24.0636V24.1465V24.2294V24.3125V24.3957V24.4791V24.5625V24.6461V24.7297V24.8135V24.8974V24.9814V25.0655V25.1497V25.2341V25.3185V25.4031V25.4878V25.5725V25.6574V25.7424V25.8275V25.9127V25.998V26.0834V26.169V26.2546V26.3403V26.4262V26.5121V26.5981V26.6843V26.7705V26.8568V26.9433V27.0298V27.1165V27.2032V27.29V27.377V27.464V27.5511V27.6383V27.7257V27.8131V27.9006V27.9882V28.0759V28.1636V28.2515V28.3395V28.4275V28.5157V28.6039V28.6923V28.7807V28.8692V28.9578V29.0464V29.1352V29.2241V29.313V29.402V29.4911V29.5803V29.6696V29.7589V29.8484V29.9379V30.0275V30.1172V30.2069V30.2968V30.3867V30.4767V30.5668V30.6569V30.7472V30.8375V30.9279V31.0183V31.1089V31.1995V31.2901V31.3809V31.4717V31.5626V31.6536V31.7446V31.8357V31.9269V32.0182V32.1095V32.2009V32.2923V32.3839V32.4755V32.5671V32.6588V32.7506V32.8425V32.9344V33.0264V33.1184V33.2105V33.3027V33.3949V33.4872V33.5795V33.672V33.7644V33.8569V33.9495V34.0422V34.1349V34.2276V34.3204V34.4133V34.5062V34.5992V34.6922V34.7853V34.8784V34.9716V35.0649V35.1582V35.2515V35.3449V35.4383V35.5318V35.6254V35.719V35.8126V35.9063V36C55.25 43.6389 49.4959 50.4438 43.5199 55.4238C40.5557 57.8939 37.5878 59.873 35.3589 61.235C34.2453 61.9156 33.3182 62.4409 32.671 62.7953C32.3932 62.9474 32.1671 63.068 32 63.1558C31.8329 63.068 31.6068 62.9474 31.329 62.7953C30.6818 62.4409 29.7547 61.9156 28.6411 61.235C26.4122 59.873 23.4443 57.8939 20.4801 55.4238C14.5041 50.4438 8.75 43.6389 8.75 36V35.9063V35.8126V35.719V35.6254V35.5318V35.4383V35.3449V35.2515V35.1582V35.0649V34.9716V34.8784V34.7853V34.6922V34.5992V34.5062V34.4133V34.3204V34.2276V34.1349V34.0422V33.9495V33.8569V33.7644V33.672V33.5795V33.4872V33.3949V33.3027V33.2105V33.1184V33.0264V32.9344V32.8425V32.7506V32.6588V32.5671V32.4755V32.3839V32.2923V32.2009V32.1095V32.0182V31.9269V31.8357V31.7446V31.6536V31.5626V31.4717V31.3809V31.2901V31.1995V31.1089V31.0183V30.9279V30.8375V30.7472V30.6569V30.5668V30.4767V30.3867V30.2968V30.2069V30.1172V30.0275V29.9379V29.8484V29.7589V29.6696V29.5803V29.4911V29.402V29.313V29.2241V29.1352V29.0464V28.9578V28.8692V28.7807V28.6923V28.6039V28.5157V28.4275V28.3395V28.2515V28.1636V28.0759V27.9882V27.9006V27.8131V27.7257V27.6383V27.5511V27.464V27.377V27.29V27.2032V27.1165V27.0298V26.9433V26.8568V26.7705V26.6843V26.5981V26.5121V26.4262V26.3403V26.2546V26.169V26.0834V25.998V25.9127V25.8275V25.7424V25.6574V25.5725V25.4878V25.4031V25.3185V25.2341V25.1497V25.0655V24.9814V24.8974V24.8135V24.7297V24.6461V24.5625V24.4791V24.3957V24.3125V24.2294V24.1465V24.0636V23.9809V23.8982V23.8157V23.7334V23.6511V23.5689V23.4869V23.405V23.3232V23.2416V23.16V23.0786V22.9973V22.9162V22.8351V22.7542V22.6734V22.5928V22.5123V22.4319V22.3516V22.2714V22.1914V22.1115V22.0318V21.9521V21.8727V21.7933V21.7141V21.635V21.556V21.4772V21.3985V21.3199V21.2415V21.1632V21.0851V21.0071V20.9292V20.8515V20.7739V20.6964V20.6191V20.5419V20.4649V20.388V20.3113V20.2346V20.1582V20.0819V20.0057V19.9297V19.8538V19.778V19.7024V19.627V19.5517V19.4766V19.4016V19.3267V19.252V19.1775V19.1031V19.0288V18.9547V18.8808V18.807V18.7334V18.6599V18.5865V18.5134V18.4404V18.3675V18.2948V18.2223V18.1499V18.0776V18.0056V17.9337V17.8619V17.7903V17.7189V17.6476V17.5765V17.5056V17.4348V17.3642V17.2937V17.2234V17.1533V17.0834V17.0136V16.944V16.8745V16.8052V16.7361V16.6672V16.5984V16.5298V16.4613V16.3931V16.325V16.257V16.1893V16.1217V16.0543V15.9871V15.92V15.8532V15.7865V15.7199V15.6536V15.5874V15.5214V15.4556V15.39V15.3245V15.2593V15.1942V15.1293V15.0645V15V14.9356V14.8715V14.8075V14.7437V14.68V14.6166V14.5533V14.4903V14.4274V14.3647V14.3022V14.2399V14.1778V14.1158V14.0541V13.9926V13.9312V13.87V13.8091V13.7483V13.6877V13.6273V13.5671V13.5071V13.4473V13.3877V13.3283V13.2691V13.21V13.1512V13.0926V13.0342V12.976V12.9179V12.8601V12.8025V12.7451V12.6879V12.6309V12.5741V12.5175V12.4611V12.4049V12.3489V12.2932V12.2376V12.1822V12.1271V12.0721V12.0174V11.9629V11.9086V11.8545V11.8006V11.7469V11.6934V11.6402V11.5871V11.5343V11.4817V11.4293V11.3771V11.3252V11.2734V11.2219V11.1706V11.1195V11.0686V11.018V10.9676V10.9173V10.8674V10.8176V10.768V10.7187V10.6696V10.6207V10.5721V10.5237V10.4755V10.4275V10.3797V10.3322V10.2849V10.2379V10.191V10.1444V10.098V10.0519V10.006V9.96029V9.91483V9.86961V9.82463V9.77987V9.73535V9.69107V9.64702V9.6032V9.55962V9.51628V9.47318V9.43031V9.38768V9.34529V9.30314V9.26123V9.21956V9.17813V9.13694V9.096V9.0553V9.01484V8.97462V8.93465V8.89493V8.85544V8.81621V8.77722V8.73848V8.69999V8.66174V8.62374V8.58599V8.54849V8.51124V8.47425V8.4375V8.401V8.36476V8.32877V8.29304V8.25755V8.22232V8.18735V8.15263V8.11817V8.08397V8.05002V8.01633V7.9829V7.94972V7.91681V7.88416V7.85176V7.81963V7.78776V7.75615V7.7248V7.69372V7.6629V7.63234V7.60205V7.57202V7.54226V7.51277V7.48354V7.45458V7.42589V7.39746V7.36931V7.34142V7.3138V7.28646V7.25938V7.23258V7.20605V7.17979V7.15381V7.1281V7.10266V7.0775V7.05262V7.028V7.00367V6.97961V6.95583V6.93233V6.90911V6.88617V6.8635V6.84112V6.81902V6.7972V6.77566V6.7544V6.73342V6.71273V6.69233V6.6722V6.65236V6.63281V6.61355V6.59457V6.58558Z" stroke="currentColor" stroke-width="1.5"></path>
</svg>
