<svg width="28" height="28" viewBox="0 0 28 28" fill="none" xmlns="http://www.w3.org/2000/svg">
<path d="M14 28C21.732 28 28 21.732 28 14C28 6.26801 21.732 0 14 0C6.26801 0 0 6.26801 0 14C0 21.732 6.26801 28 14 28Z" fill="#F0F0F0"/>
<path d="M14 0C6.26806 0 0 6.26806 0 14C0 15.7125 0.308055 17.3529 0.870789 18.8695H27.1293C27.692 17.3529 28 15.7125 28 14C28 6.26806 21.7319 0 14 0Z" fill="#0052B4"/>
<path d="M14.0003 0C7.9808 0 2.8492 3.79925 0.871094 9.13046H27.1296C25.1514 3.79925 20.0198 0 14.0003 0Z" fill="#D80027"/>
<path d="M3.62109 7.91309V14.897C3.62109 18.8697 8.81099 20.087 8.81099 20.087C8.81099 20.087 14.0008 18.8697 14.0008 14.897V7.91309H3.62109Z" fill="#D80027"/>
<path d="M5.76953 9.13047H11.8565V6.69567L10.6391 7.30434L8.81305 5.47827L6.98693 7.30434L5.76953 6.69567V9.13047Z" fill="#FFDA44"/>
<path d="M12.7842 15.8694L8.82763 11.9128L4.87109 15.8694L6.16232 17.1606L8.82763 14.4953L11.4929 17.1606L12.7842 15.8694Z" fill="#FFDA44"/>
<path d="M12.7842 12.1739H10.9381C11.0419 11.9947 11.1023 11.7872 11.1023 11.5653C11.1023 10.8929 10.5572 10.3479 9.8849 10.3479C9.42033 10.3479 9.0169 10.6081 8.81166 10.9906C8.60641 10.6082 8.20298 10.3479 7.73841 10.3479C7.06609 10.3479 6.52102 10.8929 6.52102 11.5653C6.52102 11.7872 6.58139 11.9948 6.68519 12.1739H4.87109C4.87109 12.8462 5.45674 13.3913 6.12902 13.3913H6.08849C6.08849 14.0636 6.63351 14.6087 7.30589 14.6087C7.30589 15.204 7.73344 15.6986 8.29809 15.8045L7.33887 17.9702C7.79857 18.1571 8.30093 18.2609 8.82768 18.2609C9.35443 18.2609 9.85679 18.1571 10.3165 17.9702L9.35727 15.8045C9.92192 15.6987 10.3495 15.204 10.3495 14.6087C11.0219 14.6087 11.5669 14.0636 11.5669 13.3913H11.5263C12.1986 13.3913 12.7842 12.8462 12.7842 12.1739Z" fill="#F0F0F0"/>
</svg>
