<svg width="28" height="28" viewBox="0 0 28 28" fill="none" xmlns="http://www.w3.org/2000/svg">
<g clip-path="url(#clip0_4041_20850)">
<path d="M14 28C21.732 28 28 21.732 28 14C28 6.26801 21.732 0 14 0C6.26801 0 0 6.26801 0 14C0 21.732 6.26801 28 14 28Z" fill="#F0F0F0"/>
<path d="M27.1292 9.13046H12.1739V5.47827H4.86954V9.13046H0.870789C0.308055 10.6471 0 12.2875 0 14C0 15.7125 0.308055 17.3529 0.870789 18.8695L14 20.0869L27.1292 18.8695C27.6919 17.3529 28 15.7125 28 14C28 12.2875 27.6919 10.6471 27.1292 9.13046Z" fill="#0052B4"/>
<path d="M14.0003 28.0001C20.0198 28.0001 25.1514 24.2008 27.1295 18.8696H0.871094C2.8492 24.2008 7.9808 28.0001 14.0003 28.0001Z" fill="#D80027"/>
<path d="M4.87109 9.1304V10.3477C4.87109 13.1434 8.52329 14 8.52329 14C8.52329 14 12.1755 13.1434 12.1755 10.3477V9.1304L10.9581 10.3478L8.52329 8.52173L6.08849 10.3478L4.87109 9.1304Z" fill="#F0F0F0"/>
</g>
<defs>
<clipPath id="clip0_4041_20850">
<rect width="28" height="28" fill="white"/>
</clipPath>
</defs>
</svg>
