<svg width="48" height="48" viewBox="0 0 48 48" fill="none" xmlns="http://www.w3.org/2000/svg">
<circle cx="24" cy="24" r="11.25" stroke="#585F69" stroke-width="1.5"/>
<circle cx="39" cy="39" r="6" stroke="#585F69" stroke-width="1.5"/>
<path d="M35.8606 38.7441L35.7114 38.8891L35.8622 39.0325L38.3479 41.395L38.5024 41.5418L38.6391 41.3783L42.1534 37.1783L42.2789 37.0283L42.1317 36.8995L41.7888 36.5995L41.6454 36.474L41.5131 36.6112L38.3209 39.9246L36.5167 38.3613L36.3779 38.2411L36.2463 38.3691L35.8606 38.7441Z" fill="#585F69" stroke="#585F69" stroke-width="0.4"/>
<path d="M24 37.5L24 46.5" stroke="#585F69" stroke-width="1.5"/>
<path d="M14.4531 33.5459L8.08916 39.9099" stroke="#585F69" stroke-width="1.5"/>
<path d="M10.5 24L1.5 24" stroke="#585F69" stroke-width="1.5"/>
<path d="M14.4531 14.4541L8.08916 8.09014" stroke="#585F69" stroke-width="1.5"/>
<path d="M24 1.5L24 10.5" stroke="#585F69" stroke-width="1.5"/>
<path d="M39.9062 8.09009L33.5423 14.454" stroke="#585F69" stroke-width="1.5"/>
<path d="M46.5 24L37.5 24" stroke="#585F69" stroke-width="1.5"/>
</svg>
