<svg width="28" height="28" viewBox="0 0 28 28" fill="none" xmlns="http://www.w3.org/2000/svg">
<path d="M14 28C21.732 28 28 21.732 28 14C28 6.26801 21.732 0 14 0C6.26801 0 0 6.26801 0 14C0 21.732 6.26801 28 14 28Z" fill="#FFDA44"/>
<path d="M10.9571 12.1739H27.882C26.9872 5.3048 21.1135 0 14.0005 0C12.9552 0 11.937 0.115555 10.957 0.332773V12.1739H10.9571Z" fill="#0052B4"/>
<path d="M7.30301 12.1738V1.70215C3.45881 3.79963 0.706882 7.64695 0.117188 12.1738H7.30301V12.1738Z" fill="#0052B4"/>
<path d="M7.30295 15.8262H0.117188C0.706882 20.353 3.45881 24.2004 7.30301 26.2978L7.30295 15.8262Z" fill="#0052B4"/>
<path d="M10.957 15.8262V27.6673C11.937 27.8845 12.9552 28.0001 14.0005 28.0001C21.1135 28.0001 26.9872 22.6953 27.882 15.8262H10.957V15.8262Z" fill="#0052B4"/>
</svg>
