<svg width="64" height="64" viewBox="0 0 64 64" fill="none" xmlns="http://www.w3.org/2000/svg">
<mask id="path-1-inside-1_5586_22799" fill="white">
<path fill-rule="evenodd" clip-rule="evenodd" d="M34.6028 20.3187C34.5446 20.1342 34.49 19.9474 34.4394 19.7586C32.9926 14.3589 35.1662 8.84207 39.4723 5.78544L41.7423 14.2572L46.8047 15.7021L50.4664 11.9196L48.1945 3.44079C53.4606 3.92707 58.1118 7.62059 59.5606 13.0274C61.4193 19.9644 57.3026 27.0948 50.3656 28.9535C47.8831 29.6187 45.3758 29.5187 43.0942 28.7979L15.1871 56.705C12.844 59.0482 9.04501 59.0482 6.70186 56.705C4.35872 54.3619 4.35871 50.5629 6.70186 48.2197L34.6028 20.3187Z"/>
</mask>
<path d="M34.4394 19.7586L32.9906 20.1468L32.9906 20.1468L34.4394 19.7586ZM34.6028 20.3187L35.6635 21.3794L36.3075 20.7354L36.0332 19.867L34.6028 20.3187ZM39.4723 5.78544L40.9212 5.39721L40.3629 3.31374L38.604 4.56228L39.4723 5.78544ZM41.7423 14.2572L40.2934 14.6455L40.5134 15.4664L41.3306 15.6996L41.7423 14.2572ZM46.8047 15.7021L46.393 17.1445L47.2573 17.3912L47.8824 16.7454L46.8047 15.7021ZM50.4664 11.9196L51.5442 12.9629L52.1353 12.3523L51.9153 11.5314L50.4664 11.9196ZM48.1945 3.44079L48.3325 1.94714L46.1884 1.74915L46.7457 3.82902L48.1945 3.44079ZM59.5606 13.0274L58.1117 13.4156L58.1117 13.4156L59.5606 13.0274ZM50.3656 28.9535L49.9774 27.5047L50.3656 28.9535ZM43.0942 28.7979L43.5461 27.3676L42.6776 27.0932L42.0336 27.7373L43.0942 28.7979ZM32.9906 20.1468C33.0469 20.357 33.1076 20.5649 33.1725 20.7705L36.0332 19.867C35.9815 19.7034 35.9332 19.5379 35.8883 19.3704L32.9906 20.1468ZM38.604 4.56228C33.8033 7.97008 31.3762 14.122 32.9906 20.1468L35.8883 19.3704C34.609 14.5958 36.5292 9.71407 40.3406 7.0086L38.604 4.56228ZM43.1912 13.869L40.9212 5.39721L38.0234 6.17367L40.2934 14.6455L43.1912 13.869ZM47.2164 14.2597L42.154 12.8148L41.3306 15.6996L46.393 17.1445L47.2164 14.2597ZM49.3887 10.8763L45.727 14.6588L47.8824 16.7454L51.5442 12.9629L49.3887 10.8763ZM46.7457 3.82902L49.0175 12.3078L51.9153 11.5314L49.6434 3.05256L46.7457 3.82902ZM61.0094 12.6392C59.393 6.60639 54.2036 2.48929 48.3325 1.94714L48.0566 4.93443C52.7176 5.36484 56.8306 8.63478 58.1117 13.4156L61.0094 12.6392ZM50.7538 30.4024C58.491 28.3293 63.0826 20.3764 61.0094 12.6392L58.1117 13.4156C59.756 19.5524 56.1142 25.8603 49.9774 27.5047L50.7538 30.4024ZM42.6424 30.2282C45.1884 31.0325 47.9871 31.1438 50.7538 30.4024L49.9774 27.5047C47.779 28.0937 45.5632 28.0048 43.5461 27.3676L42.6424 30.2282ZM42.0336 27.7373L14.1265 55.6444L16.2478 57.7657L44.1549 29.8586L42.0336 27.7373ZM14.1265 55.6444C12.3691 57.4017 9.51988 57.4017 7.76252 55.6444L5.6412 57.7657C8.57013 60.6946 13.3189 60.6946 16.2478 57.7657L14.1265 55.6444ZM7.76252 55.6444C6.00516 53.887 6.00516 51.0377 7.76252 49.2804L5.6412 47.1591C2.71226 50.088 2.71227 54.8367 5.6412 57.7657L7.76252 55.6444ZM7.76252 49.2804L35.6635 21.3794L33.5422 19.2581L5.6412 47.1591L7.76252 49.2804Z" fill="currentColor" mask="url(#path-1-inside-1_5586_22799)"/>
</svg>
