<svg width="64" height="64" viewBox="0 0 64 64" fill="none" xmlns="http://www.w3.org/2000/svg">
<mask id="path-1-inside-1_4078_23511" fill="white">
<path fill-rule="evenodd" clip-rule="evenodd" d="M18 11H8C3.58172 11 0 14.5817 0 19V51C0 55.4183 3.58172 59 8 59H18C18 56.7909 19.7909 55 22 55H42C44.2091 55 46 56.7909 46 59H56C60.4183 59 64 55.4183 64 51V19C64 14.5817 60.4183 11 56 11H46C46 13.2091 44.2091 15 42 15H22C19.7909 15 18 13.2091 18 11Z"/>
</mask>
<path d="M18 11H19.5V9.5H18V11ZM18 59V60.5H19.5V59H18ZM46 59H44.5V60.5H46V59ZM46 11V9.5H44.5V11H46ZM18 9.5H8V12.5H18V9.5ZM8 9.5C2.75329 9.5 -1.5 13.7533 -1.5 19H1.5C1.5 15.4102 4.41015 12.5 8 12.5V9.5ZM-1.5 19V51H1.5V19H-1.5ZM-1.5 51C-1.5 56.2467 2.75329 60.5 8 60.5V57.5C4.41015 57.5 1.5 54.5899 1.5 51H-1.5ZM8 60.5H18V57.5H8V60.5ZM19.5 59C19.5 57.6193 20.6193 56.5 22 56.5V53.5C18.9624 53.5 16.5 55.9624 16.5 59H19.5ZM22 56.5H42V53.5H22V56.5ZM42 56.5C43.3807 56.5 44.5 57.6193 44.5 59H47.5C47.5 55.9624 45.0376 53.5 42 53.5V56.5ZM46 60.5H56V57.5H46V60.5ZM56 60.5C61.2467 60.5 65.5 56.2467 65.5 51H62.5C62.5 54.5899 59.5899 57.5 56 57.5V60.5ZM65.5 51V19H62.5V51H65.5ZM65.5 19C65.5 13.7533 61.2467 9.5 56 9.5V12.5C59.5899 12.5 62.5 15.4101 62.5 19H65.5ZM56 9.5H46V12.5H56V9.5ZM44.5 11C44.5 12.3807 43.3807 13.5 42 13.5V16.5C45.0376 16.5 47.5 14.0376 47.5 11H44.5ZM42 13.5H22V16.5H42V13.5ZM22 13.5C20.6193 13.5 19.5 12.3807 19.5 11H16.5C16.5 14.0376 18.9624 16.5 22 16.5V13.5Z" fill="currentColor" mask="url(#path-1-inside-1_4078_23511)"/>
<rect x="22.75" y="5.75" width="18.5" height="4.5" rx="2.25" stroke="currentColor" stroke-width="1.5"/>
</svg>
