<svg width="28" height="28" viewBox="0 0 28 28" fill="none" xmlns="http://www.w3.org/2000/svg">
<path d="M14 28C21.732 28 28 21.732 28 14C28 6.26801 21.732 0 14 0C6.26801 0 0 6.26801 0 14C0 21.732 6.26801 28 14 28Z" fill="#D80027"/>
<path d="M13.428 11.4399L14.5767 13.0228L16.437 12.4196L15.2865 14.0012L16.435 15.584L14.5754 14.9785L13.4249 16.5601L13.4261 14.6044L11.5664 13.9989L13.4268 13.3957L13.428 11.4399Z" fill="#F0F0F0"/>
<path d="M10.2936 17.9566C8.10852 17.9566 6.33709 16.1851 6.33709 14C6.33709 11.8149 8.10852 10.0435 10.2936 10.0435C10.9749 10.0435 11.616 10.2158 12.1756 10.5191C11.2976 9.66035 10.0969 9.13043 8.77188 9.13043C6.08246 9.13043 3.90234 11.3106 3.90234 14C3.90234 16.6893 6.08252 18.8695 8.77188 18.8695C10.097 18.8695 11.2977 18.3395 12.1756 17.4809C11.616 17.7842 10.9749 17.9566 10.2936 17.9566Z" fill="#F0F0F0"/>
</svg>
