<svg width="28" height="28" viewBox="0 0 28 28" fill="none" xmlns="http://www.w3.org/2000/svg">
<path d="M14 28C21.732 28 28 21.732 28 14C28 6.26801 21.732 0 14 0C6.26801 0 0 6.26801 0 14C0 21.732 6.26801 28 14 28Z" fill="#F0F0F0"/>
<path d="M2.89224 5.47656C1.79253 6.90735 0.963305 8.55645 0.480469 10.348H7.76364L2.89224 5.47656Z" fill="#0052B4"/>
<path d="M27.5174 10.3479C27.0346 8.55645 26.2053 6.90735 25.1057 5.47656L20.2344 10.3479H27.5174Z" fill="#0052B4"/>
<path d="M0.480469 17.6522C0.963359 19.4437 1.79259 21.0928 2.89224 22.5235L7.76348 17.6522H0.480469Z" fill="#0052B4"/>
<path d="M22.5198 2.89413C21.089 1.79442 19.4399 0.96519 17.6484 0.4823V7.76542L22.5198 2.89413Z" fill="#0052B4"/>
<path d="M5.47656 25.1059C6.90735 26.2056 8.55645 27.0348 10.3479 27.5177V20.2346L5.47656 25.1059Z" fill="#0052B4"/>
<path d="M10.3479 0.4823C8.5564 0.96519 6.9073 1.79442 5.47656 2.89407L10.3479 7.76536V0.4823Z" fill="#0052B4"/>
<path d="M17.6484 27.5177C19.4399 27.0348 21.089 26.2056 22.5197 25.1059L17.6484 20.2346V27.5177Z" fill="#0052B4"/>
<path d="M20.2344 17.6522L25.1057 22.5236C26.2053 21.0928 27.0346 19.4437 27.5174 17.6522H20.2344Z" fill="#0052B4"/>
<path d="M27.8815 12.1739H15.8262H15.8261V0.118508C15.2283 0.0406875 14.6189 0 14 0C13.381 0 12.7717 0.0406875 12.1739 0.118508V12.1738V12.1739H0.118508C0.0406875 12.7717 0 13.3811 0 14C0 14.619 0.0406875 15.2283 0.118508 15.8261H12.1738H12.1739V27.8815C12.7717 27.9593 13.381 28 14 28C14.6189 28 15.2283 27.9594 15.8261 27.8815V15.8262V15.8261H27.8815C27.9593 15.2283 28 14.619 28 14C28 13.3811 27.9593 12.7717 27.8815 12.1739Z" fill="#D80027"/>
<path d="M17.6523 17.6523L23.8996 23.8996C24.187 23.6123 24.461 23.312 24.7226 23.0008L19.374 17.6522H17.6523V17.6523Z" fill="#D80027"/>
<path d="M10.3489 17.6522H10.3488L4.10156 23.8994C4.38878 24.1868 4.68907 24.4609 5.00035 24.7224L10.3489 19.3737V17.6522Z" fill="#D80027"/>
<path d="M10.3476 10.3479V10.3478L4.10028 4.10046C3.81295 4.38768 3.53886 4.68797 3.27734 4.99925L8.62594 10.3479H10.3476V10.3479Z" fill="#D80027"/>
<path d="M17.6523 10.3479L23.8997 4.10047C23.6125 3.81314 23.3122 3.53905 23.0009 3.27759L17.6523 8.62619V10.3479Z" fill="#D80027"/>
</svg>
