<svg width="48" height="48" viewBox="0 0 48 48" fill="none" xmlns="http://www.w3.org/2000/svg">
  <circle cx="24" cy="24" r="23.25" stroke="currentColor" stroke-width="1.5"></circle>
  <path d="M24 0.749999C27.4018 0.749999 30.6281 3.1698 33.0463 7.40154C35.4523 11.6121 36.9643 17.4789 36.9643 24C36.9643 30.5211 35.4523 36.3879 33.0463 40.5985C30.6281 44.8302 27.4018 47.25 24 47.25C20.5982 47.25 17.3718 44.8302 14.9537 40.5985C12.5477 36.3879 11.0357 30.5211 11.0357 24C11.0357 17.4789 12.5477 11.6121 14.9537 7.40154C17.3718 3.1698 20.5982 0.75 24 0.749999Z" stroke="currentColor" stroke-width="1.5"></path>
  <path d="M0 24H48" stroke="currentColor" stroke-width="1.5"></path>
  <path d="M24 48L24 -2.38419e-07" stroke="currentColor" stroke-width="1.5"></path>
</svg>
