<svg width="64" height="64" viewBox="0 0 64 64" fill="none" xmlns="http://www.w3.org/2000/svg">
  <circle cx="32" cy="32" r="31.25" stroke="currentColor" stroke-width="1.5"></circle>
  <path d="M32 0.749999C36.6641 0.749999 41.0333 4.06523 44.2787 9.74468C47.512 15.4029 49.5357 23.2698 49.5357 32C49.5357 40.7302 47.512 48.5971 44.2787 54.2553C41.0333 59.9348 36.6641 63.25 32 63.25C27.3358 63.25 22.9666 59.9348 19.7212 54.2553C16.4879 48.5971 14.4643 40.7302 14.4643 32C14.4643 23.2698 16.4879 15.4029 19.7212 9.74469C22.9666 4.06523 27.3358 0.749999 32 0.749999Z" stroke="currentColor" stroke-width="1.5"></path>
  <path d="M0 32H64" stroke="currentColor" stroke-width="1.5"></path>
  <path d="M32 64L32 -2.38419e-06" stroke="currentColor" stroke-width="1.5"></path>
</svg>
